<svg width="800" height="800" viewBox="0 0 800 800" fill="none" xmlns="http://www.w3.org/2000/svg">
<g clip-path="url(#clip0_1540_3847)">
<path d="M503.589 52.3115L429.591 96.7086H572.46C574.175 96.6915 575.843 96.1477 577.237 95.1504C578.631 94.153 579.685 92.7503 580.255 91.1335C580.825 89.5167 580.884 87.7637 580.424 86.1123C579.963 84.4609 579.006 82.9915 577.681 81.903C556.265 65.2562 530.581 54.9982 503.589 52.3115Z" fill="#333333"/>
<path d="M414.837 7.93555H311.237V55.8721C324.128 41.003 340.029 29.0408 357.888 20.777C375.748 12.5132 395.159 8.13609 414.837 7.93555Z" fill="#333333"/>
<path d="M385.184 37.4849C445.629 37.4849 473.936 67.0866 473.936 67.0866L475.784 68.9347L503.537 52.2281C493.066 38.5959 479.638 27.5178 464.265 19.8275C448.891 12.1372 431.974 8.03512 414.785 7.83105C395.107 8.0316 375.696 12.4087 357.837 20.6725C339.977 28.9363 324.076 40.8985 311.186 55.7676C304.512 63.7252 298.874 72.4962 294.406 81.8711H296.39C306.576 67.9255 319.951 56.6199 335.398 48.8982C350.845 41.1765 367.916 37.2631 385.184 37.4849Z" fill="#E5E5E5"/>
<path d="M429.664 96.688L475.909 68.9454L474.061 67.0972C474.061 67.0972 445.713 37.4956 385.309 37.4956C368.047 37.2817 350.985 41.2003 335.545 48.9236C320.106 56.6468 306.738 67.9509 296.557 81.8926H294.573C285.893 100.405 281.514 120.641 281.762 141.085C346.415 94.9654 429.664 96.688 429.664 96.688Z" fill="#333333"/>
<path d="M414.806 81.9025C422.977 81.9025 429.601 75.2783 429.601 67.107C429.601 58.9357 422.977 52.3115 414.806 52.3115C406.634 52.3115 400.01 58.9357 400.01 67.107C400.01 75.2783 406.634 81.9025 414.806 81.9025Z" fill="#E5E5E5"/>
<path d="M429.664 96.688C429.664 96.688 346.414 94.9653 281.678 141.085C281.678 141.085 293.592 182.903 326.075 200.277C367.562 202.014 408.669 191.74 444.46 170.687C444.46 170.687 469.519 96.688 518.458 96.688H429.664Z" fill="#E5E5E5"/>
<path d="M577.619 555.483L548.028 504.32V644.235C513.599 619.895 483.583 589.851 459.276 555.399H459.224V777.384L503.631 762.588L533.222 777.384L562.823 762.588L592.414 777.384L622.015 762.588L666.412 777.384L577.619 555.483Z" fill="#985C4C"/>
<path d="M281.605 141.063C281.605 141.063 207.606 165.319 207.606 259.459C207.606 336.621 267.227 386.677 288.747 402.245C256.853 361.323 238.803 311.317 237.208 259.459C237.208 161.08 281.605 141.063 281.605 141.063Z" fill="#985C4C"/>
<path d="M507.035 433.632L547.986 504.352L577.577 555.515V481.485C577.25 445.431 573.558 409.485 566.551 374.116L507.035 433.632Z" fill="#985C4C"/>
<path d="M533.211 274.265C516.212 244.172 485.974 200.267 459.213 200.267C457.375 200.267 455.621 200.371 453.919 200.538C405.721 205.237 414.826 274.265 414.826 274.265L490.787 405.482L558.114 338.156C552.392 315.941 544.032 294.492 533.211 274.265Z" fill="#985C4C"/>
<path d="M507.034 433.632L467.723 472.944C477.424 484.868 489.663 494.478 503.547 501.075C517.432 507.671 532.614 511.088 547.986 511.076V504.352L538.317 487.645L507.034 433.632Z" fill="#E5E5E5"/>
<path d="M467.775 472.892L433.538 507.129C440.24 524.147 448.88 540.337 459.286 555.378C483.593 589.83 513.609 619.875 548.038 644.214V511.023C532.666 511.035 517.485 507.619 503.6 501.022C489.715 494.426 477.477 484.816 467.775 472.892Z" fill="#D9EF68"/>
<path d="M451.487 444.805L490.819 405.462L444.449 325.365V407.435C444.457 420.22 446.843 432.893 451.487 444.805Z" fill="#E5E5E5"/>
<path d="M444.386 407.424V325.355L414.795 274.191C414.795 274.191 405.69 205.164 453.888 200.465L444.386 170.603C408.596 191.656 367.489 201.93 326.002 200.193C293.519 182.819 281.605 141.001 281.605 141.001C281.605 141.001 237.208 161.017 237.208 259.396C238.803 311.254 256.853 361.26 288.747 402.182C315.648 438.476 348.214 470.205 385.194 496.155H399.99L451.424 444.731C446.788 432.838 444.402 420.188 444.386 407.424Z" fill="#D9EF68"/>
<path d="M103.996 792.191L696.024 200.235V244.632L148.466 792.191H103.996Z" fill="#FDA654"/>
<path d="M414.837 81.8611C417.766 81.8611 420.629 80.9928 423.064 79.3654C425.499 77.7381 427.397 75.4245 428.517 72.7185C429.637 70.0124 429.93 67.0352 429.358 64.1628C428.786 61.2905 427.374 58.6524 425.303 56.5822C423.231 54.512 420.592 53.1023 417.719 52.5322C414.847 51.9621 411.869 52.2569 409.164 53.3792C406.459 54.5014 404.147 56.4008 402.521 58.837C400.896 61.2731 400.029 64.1369 400.031 67.0657C400.034 70.9906 401.595 74.7537 404.372 77.5281C407.148 80.3025 410.912 81.8611 414.837 81.8611Z" fill="#1A1A1A"/>
<path d="M690.459 239.13L561.048 368.541L501.532 428.057L486.914 442.675L428.829 500.771C426.374 500.954 424.066 502.011 422.324 503.751C420.583 505.49 419.523 507.797 419.337 510.252L399.499 530.09C396.923 529.959 394.465 528.97 392.516 527.28C390.567 525.591 389.239 523.297 388.744 520.766C390.614 520.088 392.248 518.884 393.449 517.298C394.649 515.712 395.365 513.812 395.51 511.828L400.814 506.513C403.27 506.333 405.579 505.276 407.321 503.536C409.063 501.796 410.122 499.488 410.305 497.033L517.278 390.05L563.648 343.68L701.527 205.853C702.254 205.126 702.831 204.262 703.225 203.312C703.619 202.361 703.821 201.342 703.821 200.314C703.821 199.285 703.619 198.266 703.225 197.316C702.831 196.366 702.254 195.502 701.527 194.775C700.8 194.048 699.936 193.47 698.985 193.077C698.035 192.683 697.016 192.48 695.988 192.48C694.959 192.48 693.94 192.683 692.99 193.077C692.039 193.47 691.176 194.048 690.449 194.775L561.831 323.392C556.437 305.03 549.126 287.287 540.019 270.454C523.626 241.438 491.425 192.875 459.62 192.52L452.74 170.906C457.208 159.211 480.127 104.55 518.458 104.55H575.885C579.367 104.567 582.749 103.388 585.465 101.21C588.181 99.032 590.067 95.9867 590.806 92.5844C591.616 89.2058 591.225 85.6508 589.701 82.5286C588.177 79.4064 585.614 76.9117 582.453 75.4712C558.362 64.218 533.677 54.2842 508.507 45.7134C497.303 31.5947 483.076 20.1675 466.873 12.2728C450.67 4.37807 432.903 0.216591 414.879 0.0947266H311.29C309.213 0.0947266 307.221 0.919736 305.752 2.38834C304.284 3.85695 303.459 5.84886 303.459 7.92578V53.3144C297.171 61.0823 291.797 69.5468 287.441 78.5411C279.082 96.4724 274.552 115.949 274.139 135.729C261.22 141.506 249.416 149.507 239.265 159.368C226.133 172.431 215.853 188.075 209.072 205.311C202.291 222.548 199.158 241.003 199.869 259.511C199.869 338.083 257.412 388.985 283.265 407.905C309.028 442.441 339.808 472.933 374.585 498.369C367.317 509.787 360.029 521.192 352.721 532.586L340.191 545.115C329.499 549.054 319.789 555.266 311.731 563.322C303.673 571.378 297.459 581.087 293.518 591.778L98.5667 786.73C97.0976 788.199 96.2725 790.191 96.2725 792.269C96.2725 794.346 97.0976 796.339 98.5667 797.808C100.036 799.277 102.028 800.102 104.106 800.102C106.183 800.102 108.176 799.277 109.645 797.808L298.206 609.184C300.952 613.744 304.769 617.565 309.327 620.315L142.943 786.688C141.474 788.157 140.648 790.15 140.648 792.227C140.648 794.305 141.474 796.297 142.943 797.767C144.412 799.236 146.404 800.061 148.482 800.061C150.559 800.061 152.552 799.236 154.021 797.767L326.868 624.919C329.323 624.734 331.629 623.674 333.369 621.932C335.109 620.191 336.166 617.883 336.349 615.428L341.664 610.124C344.119 609.939 346.427 608.879 348.169 607.137C349.91 605.396 350.97 603.088 351.155 600.633L386.06 565.727C388.516 565.541 390.824 564.482 392.566 562.74C394.307 560.999 395.366 558.691 395.552 556.236L400.856 550.921C403.311 550.74 405.621 549.683 407.363 547.943C409.105 546.203 410.164 543.896 410.347 541.44L430.29 521.487H431.126C436.894 534.066 443.683 546.152 451.424 557.624V777.427C451.425 778.667 451.72 779.889 452.286 780.992C452.851 782.096 453.671 783.05 454.678 783.775C455.684 784.5 456.848 784.975 458.074 785.162C459.3 785.349 460.553 785.242 461.729 784.851L503.057 771.088L529.755 784.432C530.842 784.973 532.039 785.255 533.253 785.255C534.467 785.255 535.664 784.973 536.751 784.432L562.855 771.381L588.958 784.432C590.047 784.973 591.246 785.255 592.461 785.255C593.677 785.255 594.876 784.973 595.964 784.432L622.663 771.088L663.98 784.851C664.776 785.124 665.612 785.262 666.454 785.258C667.738 785.264 669.003 784.955 670.139 784.357C671.275 783.76 672.247 782.892 672.969 781.831C673.691 780.77 674.141 779.547 674.28 778.271C674.418 776.995 674.241 775.704 673.763 774.513L585.533 553.938V481.454C585.187 446.297 581.692 411.24 575.092 376.706L701.6 250.208C703.069 248.739 703.895 246.747 703.895 244.669C703.895 242.592 703.069 240.599 701.6 239.13C700.131 237.661 698.139 236.836 696.061 236.836C693.983 236.836 691.991 237.661 690.522 239.13H690.459ZM535.655 502.347C533.076 502.013 530.528 501.596 528.001 501.063C526.957 500.834 525.913 500.551 524.869 500.29C522.739 499.761 520.65 499.163 518.604 498.494C517.56 498.15 516.515 497.795 515.409 497.45C513.23 496.643 511.079 495.759 508.956 494.798C508.131 494.433 507.296 494.109 506.481 493.754C503.61 492.365 500.801 490.852 498.076 489.181C497.554 488.857 497.032 488.481 496.552 488.136C494.359 486.727 492.208 485.244 490.13 483.647C489.264 482.989 488.428 482.279 487.582 481.559C485.88 480.16 484.21 478.708 482.602 477.184C481.766 476.411 480.942 475.617 480.148 474.813C479.637 474.291 479.167 473.717 478.666 473.195L505.49 446.371L538.098 502.681H537.722C536.96 502.566 536.271 502.431 535.655 502.347ZM467.399 484.346C467.911 484.879 468.443 485.391 468.997 485.882C470.041 486.926 471.085 487.854 472.129 488.815C473.925 490.507 475.783 492.136 477.684 493.692C478.049 493.994 478.383 494.339 478.728 494.631C478.578 495.161 478.47 495.703 478.404 496.25V500.604H451.163L467.399 484.346ZM340.306 589.293C337.73 589.165 335.271 588.178 333.32 586.49C331.369 584.802 330.039 582.51 329.541 579.979C331.412 579.302 333.047 578.098 334.247 576.512C335.448 574.926 336.164 573.025 336.307 571.041L341.622 565.727C344.078 565.541 346.385 564.482 348.127 562.74C349.868 560.999 350.928 558.691 351.113 556.236L357.378 549.971C360.126 554.526 363.943 558.342 368.498 561.091L340.306 589.293ZM452.249 354.55L480.994 404.198L455.099 430.103C454.953 429.508 454.807 428.902 454.671 428.307C454.114 425.857 453.662 423.39 453.314 420.904C453.168 419.86 452.99 418.816 452.875 417.824C452.478 414.382 452.269 410.921 452.249 407.456V354.55ZM377.394 541.879C377.112 541.618 376.851 541.367 376.59 541.074L377.394 541.879ZM526.393 278.118C536.244 296.418 543.952 315.793 549.364 335.859L528.701 356.523L492.417 392.734L451.152 321.471L446.976 314.162L422.428 271.759C422.045 267.225 421.92 262.672 422.052 258.123C422.052 257.308 422.052 256.505 422.136 255.659C422.136 254.615 422.292 253.57 422.376 252.432C422.501 250.876 422.637 249.3 422.846 247.712C422.919 247.138 423.023 246.554 423.107 245.98C423.399 243.996 423.733 242.001 424.151 240.017C424.234 239.599 424.37 239.182 424.475 238.764C424.94 236.722 425.508 234.704 426.177 232.719C426.417 231.998 426.751 231.32 427.033 230.63C427.623 229.014 428.296 227.428 429.048 225.88C430.171 223.668 431.507 221.569 433.036 219.615C433.611 218.894 434.279 218.352 434.884 217.704C435.661 216.813 436.487 215.966 437.359 215.167C438.031 214.678 438.728 214.225 439.447 213.81C440.396 213.077 441.394 212.41 442.434 211.815C443.175 211.429 444.031 211.199 444.814 210.876C445.912 210.368 447.038 209.925 448.187 209.549C450.323 208.96 452.507 208.558 454.713 208.349C456.164 208.213 457.668 208.119 459.244 208.119C476.253 208.098 501.992 234.933 526.393 278.118ZM438.121 165.163C436.733 165.915 435.354 166.635 433.945 167.356C432.358 168.18 430.813 169.016 429.205 169.789C427.43 170.655 425.675 171.459 423.921 172.263C422.376 172.973 420.789 173.715 419.296 174.352C417.552 175.114 415.84 175.792 414.075 176.492C412.571 177.097 411.057 177.735 409.575 178.298C407.883 178.946 406.223 179.52 404.563 180.115C403.111 180.626 401.639 181.159 400.209 181.64C398.559 182.193 396.951 182.684 395.332 183.174C393.954 183.602 392.545 184.052 391.156 184.448C389.579 184.897 388.024 185.284 386.52 185.691C385.183 186.046 383.816 186.422 382.51 186.735C381.028 187.1 379.597 187.403 378.146 187.779C376.872 188.071 375.567 188.374 374.324 188.635C372.915 188.917 371.568 189.157 370.2 189.408C368.999 189.627 367.778 189.877 366.629 190.065C365.272 190.295 363.998 190.473 362.703 190.672C361.659 190.828 360.51 191.005 359.477 191.141C358.224 191.308 357.054 191.434 355.853 191.569C354.809 191.684 353.828 191.82 352.878 191.914C351.719 192.028 350.654 192.112 349.568 192.196C348.691 192.269 347.772 192.363 346.936 192.415C345.777 192.499 344.723 192.54 343.648 192.592C343 192.592 342.301 192.676 341.684 192.697C340.578 192.697 339.596 192.759 338.552 192.78H337.08C336.036 192.78 335.201 192.78 334.323 192.78H333.279L331.274 192.728H330.293C329.447 192.728 328.748 192.655 328.205 192.624C325.811 191.231 323.515 189.675 321.334 187.967C320.823 187.581 320.29 187.194 319.82 186.787C317.763 185.127 315.797 183.356 313.931 181.483C313.712 181.264 313.514 181.023 313.294 180.793C311.624 179.06 310.058 177.265 308.575 175.448C308.209 174.999 307.833 174.55 307.531 174.101C305.975 172.127 304.524 170.123 303.187 168.129C302.937 167.753 302.707 167.387 302.467 167.011C301.308 165.226 300.232 163.461 299.23 161.738C299.01 161.352 298.77 160.955 298.561 160.569C297.476 158.641 296.491 156.775 295.607 154.972L295.053 153.824C294.301 152.247 293.602 150.743 292.965 149.344L292.662 148.655C292.004 147.12 291.451 145.732 290.981 144.479L290.898 144.27C292.213 143.392 293.518 142.516 294.855 141.68C296.484 140.636 298.123 139.592 299.783 138.631C302.018 137.305 304.283 136.073 306.549 134.852C308.189 133.964 309.817 133.066 311.457 132.23C313.796 131.061 316.145 129.965 318.484 128.89C320.081 128.159 321.616 127.386 323.266 126.697C325.761 125.653 328.247 124.608 330.732 123.658C332.173 123.094 333.613 122.478 335.044 121.946C337.936 120.902 340.807 119.857 343.668 118.959C344.713 118.625 345.757 118.239 346.717 117.916C350.518 116.704 354.266 115.605 357.963 114.616C359.477 114.199 360.939 113.864 362.442 113.488C364.614 112.945 366.807 112.371 368.926 111.891C370.68 111.483 372.361 111.149 374.084 110.794C375.807 110.439 377.645 110.032 379.368 109.751C381.09 109.469 382.876 109.124 384.588 108.821C386.102 108.56 387.627 108.288 389.089 108.059C390.864 107.777 392.555 107.537 394.236 107.296C395.52 107.119 396.826 106.931 398.058 106.774C399.749 106.566 401.368 106.367 402.944 106.2L406.077 105.855C407.643 105.699 409.209 105.563 410.587 105.438C411.444 105.365 412.279 105.292 413.083 105.24C414.503 105.125 415.891 105.031 417.144 104.947L418.857 104.854L422.459 104.686H423.253C425.769 104.602 427.638 104.582 428.568 104.582H478.133C460.225 121.355 446.518 142.109 438.121 165.163ZM290.261 126.081C291.525 113.28 294.761 100.751 299.856 88.9404C299.919 88.9404 299.95 88.836 300.013 88.8047C301.253 88.1873 302.305 87.2506 303.062 86.0904C312.553 73.2688 324.954 62.8857 339.245 55.7967C353.535 48.7077 369.306 45.1156 385.257 45.3164C389.872 45.3164 394.215 45.5565 398.423 45.8906C399.519 45.9741 400.585 46.0787 401.65 46.1831C405.398 46.559 409.021 47.0187 412.446 47.6139L413.417 47.7598C417.124 48.428 420.59 49.232 423.921 50.0987L426.427 50.7876C429.236 51.5811 431.94 52.4167 434.467 53.3042C434.853 53.4504 435.281 53.5757 435.668 53.7115C438.508 54.7556 441.129 55.7998 443.593 56.9171L445.378 57.7417C447.393 58.6814 449.294 59.6214 451.048 60.5611C451.392 60.749 451.779 60.9365 452.092 61.1245C454.086 62.1686 455.882 63.2864 457.501 64.3097L458.607 65.0298C459.913 65.8756 461.103 66.6902 462.147 67.442L462.596 67.7657L435.448 84.0645L427.482 88.8365H426.166L423.034 88.899C422.104 88.899 421.196 88.9513 420.089 89.0035L417.322 89.1392L414.284 89.3164C413.24 89.3791 412.101 89.4731 410.963 89.5567L407.298 89.8594C406.087 89.9638 404.834 90.0894 403.54 90.2252C402.245 90.3609 400.699 90.5174 399.217 90.6949L395.176 91.1856C393.505 91.4049 391.772 91.6551 390.007 91.9057C388.65 92.1041 387.334 92.2925 385.935 92.5118C383.753 92.8668 381.487 93.274 379.201 93.6812C378.104 93.8901 377.06 94.0464 375.943 94.2656C372.553 94.92 369.072 95.6582 365.501 96.4796C364.457 96.7093 363.413 97.0014 362.369 97.252C359.727 97.8889 357.075 98.5366 354.361 99.2779C352.961 99.6538 351.552 100.082 350.184 100.479C347.751 101.178 345.308 101.909 342.875 102.692C341.34 103.172 339.742 103.736 338.249 104.216C335.806 105.031 333.373 105.897 330.94 106.806C329.364 107.38 327.808 107.965 326.221 108.591C323.673 109.583 321.125 110.679 318.567 111.724C317.085 112.361 315.602 112.966 314.119 113.645C311.175 114.982 308.23 116.423 305.286 117.905C304.242 118.448 303.114 118.949 302.038 119.513C297.935 121.602 294.03 123.763 290.229 126.081H290.261ZM518.447 88.8467H457.887L479.887 75.649L504.529 60.8638C528.19 68.9741 551.412 78.3144 574.1 88.8467H518.447ZM491.78 50.2134L487.269 52.9282L477.005 59.089L476.744 58.8799C475.7 58.0028 474.489 56.9902 472.933 55.7476L472.327 55.2983C470.792 54.1498 469.018 52.9075 467.002 51.5918L466.271 51.1011C464.183 49.7437 461.688 48.313 459.046 46.872L457.438 46.0162C454.681 44.5648 451.685 43.124 448.396 41.7144L446.777 41.0561C443.426 39.6674 439.844 38.3308 435.96 37.0883L435.198 36.8277C431.22 35.5747 426.845 34.4783 422.344 33.4863C421.467 33.288 420.611 33.0896 419.703 32.9121C415.15 31.9933 410.326 31.2486 405.231 30.6778C404.312 30.5734 403.362 30.5105 402.422 30.4165C396.972 29.9049 391.313 29.5498 385.257 29.5498C381.665 29.5498 378.188 29.7063 374.815 29.9882C373.646 30.0822 372.56 30.2498 371.422 30.3751C369.239 30.6152 367.068 30.8548 364.979 31.1889C363.695 31.3977 362.484 31.6797 361.241 31.9199C359.393 32.2853 357.545 32.6406 355.77 33.0791C354.507 33.3924 353.306 33.7471 352.074 34.123C350.413 34.5929 348.774 35.0629 347.177 35.5849L346.644 35.7519C348.179 34.7913 349.693 33.758 351.249 32.8809C352.043 32.4319 352.826 31.9411 353.619 31.5235C357.378 29.5083 361.179 27.7123 364.979 26.1148C365.867 25.7389 366.744 25.4253 367.632 25.0702C370.75 23.8382 373.882 22.7353 377.029 21.7608C377.979 21.458 378.929 21.1448 379.879 20.8628C383.648 19.8187 387.376 18.8368 391.041 18.1059C391.636 17.9911 392.211 17.918 392.795 17.8032C395.928 17.2185 399.06 16.7592 402.078 16.4356C403.017 16.3311 403.957 16.2266 404.876 16.143C408.332 15.8402 411.715 15.6313 414.9 15.6313C429.398 15.8337 443.7 19.0125 456.92 24.9702C470.139 30.9279 481.994 39.5376 491.749 50.2656L491.78 50.2134ZM319.089 15.7148H350.257C349.046 16.3204 347.949 17.1141 346.759 17.8032C343.355 19.6304 340.045 21.5415 336.808 23.6089C334.981 24.7679 333.206 25.9582 331.452 27.2007C328.32 29.4143 325.302 31.7527 322.358 34.2065C321.313 35.0836 320.123 35.815 319.089 36.713V15.7148ZM215.5 259.47C214.35 229.638 224.277 200.436 243.368 177.484C242.324 179.896 241.395 182.422 240.455 185.085C240.361 185.346 240.277 185.649 240.183 185.92C239.139 188.907 238.179 192.102 237.25 195.422C236.957 196.466 236.675 197.51 236.404 198.627C235.631 201.628 234.911 204.76 234.242 208.025C234.054 208.944 233.846 209.8 233.668 210.74C232.881 214.875 232.186 219.228 231.58 223.802C231.444 224.846 231.34 226.016 231.215 227.112C230.783 230.843 230.435 234.717 230.17 238.733C230.066 240.184 229.972 241.615 229.888 243.098C229.606 248.318 229.419 253.737 229.419 259.48C229.419 264.983 229.721 270.475 230.16 275.978C230.264 277.325 230.379 278.661 230.515 280.008C231.058 285.479 231.747 290.95 232.728 296.411C232.791 296.735 232.864 297.059 232.927 297.372C233.888 302.593 235.088 307.814 236.435 312.982C236.78 314.319 237.124 315.645 237.479 316.981C238.993 322.411 240.612 327.84 242.596 333.249C242.804 333.812 243.034 334.376 243.243 334.93C245.07 339.921 247.117 344.902 249.299 349.872C249.863 351.167 250.427 352.461 251.022 353.745C251.513 354.789 251.941 355.833 252.442 356.878C229.277 329.629 216.219 295.226 215.469 259.47H215.5ZM295.074 397.61C261.87 352.043 245.039 305.558 245.039 259.439C245.039 254.333 245.196 249.519 245.436 244.82C245.498 243.463 245.592 242.147 245.676 240.832C245.905 237.4 246.188 234.083 246.522 230.881C246.647 229.732 246.751 228.563 246.887 227.457C247.388 223.374 247.931 219.448 248.61 215.752C248.693 215.282 248.798 214.864 248.881 214.405C249.497 211.168 250.166 208.14 250.876 205.133C251.116 204.141 251.366 203.18 251.617 202.219C252.275 199.703 252.974 197.291 253.705 194.994C253.924 194.295 254.133 193.564 254.363 192.906C255.324 190.024 256.316 187.299 257.36 184.751C257.527 184.323 257.715 183.936 257.892 183.508C258.783 181.42 259.691 179.419 260.617 177.504C260.91 176.909 261.202 176.315 261.505 175.74C262.445 173.903 263.391 172.162 264.345 170.52C264.512 170.248 264.669 169.956 264.825 169.684C265.974 167.784 267.119 166.044 268.261 164.463C268.428 164.223 268.584 164.025 268.751 163.795C269.733 162.427 270.704 161.174 271.654 160.015L272.26 159.274C273.978 157.225 275.826 155.29 277.794 153.479C277.856 153.636 277.95 153.834 278.013 154.001C278.712 155.661 279.464 157.405 280.362 159.316L280.446 159.493C281.302 161.31 282.273 163.231 283.317 165.205C283.609 165.768 283.912 166.333 284.236 166.907C285.197 168.675 286.241 170.478 287.368 172.316C287.619 172.723 287.828 173.098 288.078 173.505C289.436 175.667 290.918 177.86 292.495 180.052C292.881 180.595 293.299 181.097 293.717 181.671C295.032 183.446 296.431 185.19 297.893 186.892C298.363 187.445 298.812 187.998 299.303 188.541C301.193 190.682 303.198 192.77 305.349 194.806C305.735 195.172 306.152 195.506 306.549 195.85C308.387 197.51 310.329 199.108 312.355 200.632C313.023 201.134 313.691 201.677 314.38 202.126C316.914 203.943 319.557 205.603 322.295 207.096C323.173 207.569 324.133 207.87 325.124 207.983L326.169 208.077H326.889L328.32 208.182L329.426 208.234C330.095 208.234 330.742 208.297 331.515 208.318C331.974 208.318 332.559 208.318 333.049 208.318C333.916 208.318 334.772 208.318 335.775 208.318H336.161H336.808C338.813 208.318 341.068 208.255 343.522 208.151L345.13 208.087C347.929 207.941 350.978 207.722 354.267 207.399L356.355 207.179C359.487 206.845 362.797 206.417 366.305 205.884C366.807 205.811 367.256 205.759 367.757 205.676C371.578 205.06 375.64 204.277 379.848 203.368L382.761 202.71C387.167 201.666 391.689 200.622 396.429 199.181L396.794 199.066C401.368 197.719 406.118 196.111 410.953 194.357C412.081 193.95 413.177 193.553 414.315 193.125C419.285 191.235 424.339 189.168 429.518 186.797C430.29 186.453 431.063 186.046 431.836 185.691C434.488 184.449 437.14 183.216 439.834 181.838L443.801 194.305L443.655 194.357C443.426 194.42 443.217 194.535 442.987 194.597C440.532 195.349 438.147 196.31 435.856 197.469C435.093 197.845 434.373 198.283 433.642 198.701C431.893 199.705 430.219 200.832 428.63 202.073C427.972 202.585 427.304 203.065 426.688 203.608C424.542 205.444 422.57 207.475 420.799 209.675C401.848 233.534 406.86 273.42 407.079 275.101C407.215 276.123 407.549 277.108 408.06 278.003L436.607 327.308V407.268C436.607 410.505 436.774 413.731 437.056 416.937C437.15 417.981 437.317 419.025 437.443 420.069C437.693 422.23 437.965 424.392 438.351 426.532C438.56 427.754 438.842 428.955 439.093 430.166C439.51 432.129 439.959 434.082 440.481 436.024C440.815 437.277 441.191 438.519 441.578 439.772C441.87 440.722 442.1 441.683 442.413 442.623L399.342 485.704C395.287 485.767 391.28 486.596 387.533 488.147C352.222 462.924 321.033 432.383 295.074 397.61ZM488.783 521.455C491.552 521.455 494.208 520.355 496.166 518.397C498.124 516.439 499.225 513.783 499.225 511.014V507.578C499.611 507.777 499.987 507.996 500.373 508.184C503.777 509.791 507.262 511.22 510.814 512.465C511.859 512.841 512.976 513.134 514.062 513.51C516.599 514.314 519.157 515.075 521.757 515.702C523.114 516.026 524.482 516.297 525.861 516.569C528.273 517.059 530.695 517.467 533.17 517.79C534.6 517.989 536.031 518.155 537.471 518.291C538.369 518.375 539.247 518.542 540.145 518.605V628.74C511.6 606.664 486.505 580.458 465.687 550.984C459.242 541.565 453.461 531.709 448.385 521.487L488.783 521.455ZM624.448 755.165C622.476 754.51 620.324 754.664 618.465 755.594L592.362 768.635L566.258 755.594C565.17 755.051 563.971 754.768 562.755 754.768C561.54 754.768 560.34 755.051 559.252 755.594L533.149 768.635L507.045 755.594C506.125 755.133 505.123 754.857 504.096 754.784C503.07 754.71 502.039 754.84 501.062 755.165L466.971 766.526V579.008L467.18 579.259C467.796 580.032 468.433 580.752 469.049 581.514C470.803 583.665 472.568 585.795 474.332 587.852C475.241 588.896 476.149 589.941 477.057 590.985C478.561 592.697 480.054 594.388 481.558 596.028C482.529 597.072 483.489 598.116 484.46 599.16C485.901 600.685 487.321 602.198 488.741 603.671L491.665 606.668C493.075 608.098 494.463 609.487 495.842 610.844C496.781 611.763 497.711 612.682 498.64 613.569C500.07 614.947 501.469 616.264 502.816 617.569C503.662 618.362 504.518 619.177 505.354 619.939C506.878 621.348 508.361 622.674 509.833 623.99C510.47 624.564 511.138 625.169 511.775 625.723C513.863 627.54 515.837 629.273 517.769 630.944L519.063 631.988C520.556 633.241 522.029 634.463 523.417 635.601L525.328 637.136L528.46 639.662L530.382 641.166L532.929 643.129L534.684 644.445L536.772 645.979L538.181 647.024L539.873 648.245L540.917 648.955L542.17 649.832L542.713 650.208L543.569 650.783C544.686 651.505 545.97 651.929 547.297 652.014C547.422 652.014 547.527 652.014 547.652 652.014C547.739 652.02 547.826 652.02 547.913 652.014C549.989 652.012 551.979 651.186 553.447 649.718C554.915 648.25 555.741 646.259 555.744 644.183V533.484L570.445 558.877L652.755 764.657L624.448 755.165ZM569.746 481.423V526.258L554.763 500.363L516.829 434.854L561.539 390.144C566.749 420.308 569.504 450.845 569.777 481.454L569.746 481.423Z" fill="#1A1A1A"/>
</g>
<defs>
<clipPath id="clip0_1540_3847">
<rect width="800" height="800" fill="white"/>
</clipPath>
</defs>
</svg>
