<svg width="800" height="800" viewBox="0 0 800 800" fill="none" xmlns="http://www.w3.org/2000/svg">
<g clip-path="url(#clip0_1540_4356)">
<path d="M756.906 351.406C756.906 502.305 661.856 630.985 528.375 680.688C490.055 694.977 448.736 702.799 405.508 702.799C399.028 702.799 392.548 702.581 386.069 702.242C347.313 700.116 310.227 691.738 275.823 678.114C146.031 626.508 54.1047 499.739 54.1047 351.396C54.1047 157.38 211.48 -0.0107422 405.511 -0.0107422C566.464 -0.0107422 702.058 108.228 743.714 255.786C752.32 286.164 756.902 318.222 756.902 351.394L756.906 351.406Z" fill="#EFECE7"/>
<path d="M756.906 351.406C756.906 502.305 661.856 630.984 528.375 680.688L340.047 492.359L382.828 282.031L660.172 172.233L743.716 255.788C752.322 286.166 756.903 318.224 756.903 351.395L756.906 351.406Z" fill="#E1D9D2"/>
<path d="M220.391 32.5593C197.561 14.8452 168.97 4.18896 137.839 4.18896C113.733 4.18896 91.1532 10.5921 71.5735 21.664C73.8313 40.4905 82.5032 78.428 114.725 112.472C130.017 102.841 148.484 104.073 164.552 112.789C170.836 90.2952 185.856 51.9437 220.391 32.5593Z" fill="#EED5B1"/>
<path d="M101.986 161.922C94.0126 150.828 94.0672 129.253 109.489 116.239C111.18 114.811 112.936 113.589 114.725 112.466C82.5047 78.4218 73.8313 40.4843 71.575 21.6577C30.8547 44.6827 3.29067 88.2062 2.99536 138.241C25.4454 153.522 60.6344 167.889 101.986 161.922Z" fill="#D5C7B0"/>
<path d="M270.203 164.703C271.806 156.392 272.711 147.839 272.711 139.059C272.711 95.7 252.17 57.2281 220.386 32.5547C185.851 51.9391 170.831 90.2906 164.548 112.783C182.426 122.491 197.261 141.514 201.428 165.237C220.026 160.928 245.3 160.547 270.203 164.703Z" fill="#D5C7B0"/>
<path d="M79.9407 260.75C97.5032 269.127 117.083 273.948 137.841 273.948C160.791 273.948 182.334 268.112 201.238 258.002C196.698 245.544 190.613 237.233 184.755 231.211C161.205 264.109 118.741 273.916 79.9407 260.75Z" fill="#C7BBAB"/>
<path d="M270.203 164.703C245.3 160.547 220.026 160.928 201.43 165.238C204.516 182.899 201.723 203.144 189.725 224.141C188.253 226.716 186.42 228.853 184.751 231.199C190.609 237.22 196.695 245.531 201.234 257.989C236.464 239.139 262.403 205.194 270.203 164.703Z" fill="#E4CBAA"/>
<path d="M112.261 168.828C114.617 158.214 142.159 123.614 183.642 128.162C165.131 107.198 136.661 98.6672 114.726 112.477C112.937 113.6 111.181 114.822 109.491 116.25C94.0671 129.264 94.0124 150.839 101.987 161.933C104.625 165.611 108.137 168.141 112.261 168.828Z" fill="#DCCEB7"/>
<path d="M207.719 210.313C205.1 208.502 201.872 206.605 198.359 204.685C198.206 205.131 198.044 205.591 197.891 206.038L207.719 210.313Z" fill="#EED5B1"/>
<path d="M197.891 206.031C198.044 205.584 198.206 205.125 198.359 204.678C187.734 198.886 173.478 192.995 158.066 188.72L197.891 206.031Z" fill="#EED5B1"/>
<path d="M183.641 128.156C142.158 123.608 114.616 158.208 112.259 168.822L113.644 182.652C128.009 182.075 143.5 184.692 158.061 188.728C173.473 193.003 187.73 198.894 198.355 204.686C208.248 174.058 199.741 146.394 183.641 128.156Z" fill="#F5DDB9"/>
<path d="M113.645 182.656L112.261 168.826C108.137 168.139 104.625 165.608 101.986 161.933C60.6327 167.9 25.4437 153.533 2.99521 138.251C2.98584 138.523 2.9624 138.797 2.9624 139.069C2.9624 186.9 27.964 228.764 65.5187 252.686C91.5468 237.219 115.981 211.934 113.645 182.656Z" fill="#EED5B1"/>
<path d="M158.062 188.735C143.5 184.699 128.011 182.081 113.645 182.658C115.98 211.935 91.5468 237.219 65.5203 252.688C70.1562 255.644 74.9453 258.371 79.9406 260.749C121.5 274.852 167.553 262.952 189.728 224.152C193.219 218.031 195.859 211.989 197.887 206.044L158.062 188.735Z" fill="#DCCEB7"/>
<path d="M579.609 32.5593C602.439 14.8452 631.03 4.18896 662.159 4.18896C686.266 4.18896 708.845 10.5921 728.425 21.664C726.167 40.4905 717.495 78.428 685.275 112.472C669.981 102.841 651.514 104.073 635.447 112.789C629.164 90.2952 614.144 51.9437 579.609 32.5593Z" fill="#EED5B1"/>
<path d="M698.016 161.922C705.989 150.828 705.934 129.253 690.511 116.239C688.82 114.811 687.064 113.589 685.277 112.466C717.497 78.4233 726.17 40.4843 728.427 21.6577C769.145 44.6843 796.711 88.2062 797.005 138.242C774.556 153.522 739.367 167.889 698.016 161.922Z" fill="#D5C7B0"/>
<path d="M529.797 164.703C528.194 156.392 527.288 147.839 527.288 139.059C527.288 95.7 547.828 57.2281 579.613 32.5547C614.147 51.9391 629.167 90.2906 635.45 112.783C617.572 122.491 602.738 141.514 598.57 165.237C579.974 160.928 554.7 160.547 529.797 164.703Z" fill="#D5C7B0"/>
<path d="M720.063 260.75C702.5 269.127 682.92 273.948 662.163 273.948C639.213 273.948 617.669 268.112 598.766 258.002C603.303 245.544 609.391 237.233 615.247 231.211C638.798 264.109 681.264 273.916 720.063 260.75Z" fill="#C7BBAB"/>
<path d="M529.797 164.703C554.7 160.547 579.973 160.928 598.572 165.238C595.484 182.899 598.277 203.144 610.275 224.141C611.747 226.716 613.58 228.853 615.248 231.199C609.391 237.22 603.305 245.531 598.767 257.989C563.536 239.139 537.597 205.194 529.797 164.703Z" fill="#E4CBAA"/>
<path d="M687.734 168.828C685.378 158.214 657.836 123.614 616.352 128.162C634.863 107.198 663.333 98.6672 685.269 112.477C687.056 113.6 688.813 114.822 690.503 116.25C705.927 129.264 705.981 150.839 698.008 161.933C695.369 165.611 691.856 168.141 687.734 168.828Z" fill="#DCCEB7"/>
<path d="M592.281 210.313C594.898 208.502 598.128 206.605 601.641 204.685C601.792 205.131 601.956 205.591 602.108 206.038L592.281 210.313Z" fill="#EED5B1"/>
<path d="M602.109 206.031C601.958 205.584 601.794 205.125 601.642 204.678C612.266 198.886 626.522 192.995 641.936 188.72L602.109 206.031Z" fill="#EED5B1"/>
<path d="M616.359 128.156C657.842 123.608 685.384 158.208 687.742 168.822L686.356 182.652C671.991 182.075 656.502 184.692 641.941 188.728C626.528 193.003 612.27 198.894 601.647 204.686C591.752 174.058 600.259 146.394 616.359 128.156Z" fill="#F5DDB9"/>
<path d="M686.359 182.656L687.745 168.826C691.869 168.139 695.381 165.608 698.02 161.933C739.372 167.9 774.561 153.533 797.009 138.251C797.02 138.523 797.042 138.797 797.042 139.069C797.042 186.9 772.041 228.764 734.486 252.686C708.461 237.219 684.026 211.934 686.359 182.656Z" fill="#EED5B1"/>
<path d="M641.938 188.735C656.5 184.699 671.989 182.081 686.353 182.658C684.02 211.935 708.453 237.219 734.48 252.688C729.844 255.644 725.056 258.371 720.059 260.749C678.5 274.852 632.449 262.952 610.272 224.152C606.781 218.031 604.142 211.989 602.113 206.044L641.938 188.735Z" fill="#DCCEB7"/>
<path d="M386.062 702.234C347.306 700.108 310.22 691.73 275.817 678.106L318.816 635.108L386.062 702.234Z" fill="#E1D9D2"/>
<path d="M533.328 730.406V623.376C516.825 636.062 491.595 643.545 467.139 632.517V747.345C467.139 782.751 517.936 802.758 545.655 799.681C556.366 798.505 557.958 790.455 556.431 785.828C573.359 790.453 579.513 779.676 570.274 765.823C557.959 745.797 533.328 730.406 533.328 730.406Z" fill="#231815"/>
<path d="M599.219 189.562C560.484 164.67 524.958 143.422 524.958 143.422L413.445 115.759H386.57L275.059 143.42C275.059 143.42 239.531 164.67 200.798 189.561C182.233 201.495 164.769 210.101 168.991 221.38C176.038 240.175 218.567 249.401 241.266 226.92V344.595C241.266 378.497 332.509 409.562 332.509 460.415C332.509 484.915 348.184 496.903 364.427 502.803C370.153 507.091 383.93 510.111 400.084 510.111C416.358 510.111 430.2 507.045 435.839 502.705C451.994 496.77 467.505 484.783 467.505 460.414C467.505 409.562 558.748 378.495 558.748 344.594V226.919C581.448 249.4 623.978 240.173 631.023 221.378C635.248 210.101 617.784 201.495 599.219 189.562Z" fill="#231815"/>
<path d="M255.203 623.391V730.42C255.203 730.42 230.573 745.811 218.258 765.839C209.019 779.692 215.17 790.469 232.1 785.844C230.572 790.469 232.166 798.519 242.877 799.697C270.594 802.773 321.392 782.769 321.392 747.361V632.533C296.937 643.559 271.708 636.077 255.203 623.391Z" fill="#231815"/>
<path d="M489.375 67.5532C468.825 67.5532 450.805 78.4485 440.803 94.7688C429.797 85.4751 415.606 79.8688 400.084 79.8688C384.573 79.8688 370.359 85.4751 359.386 94.7688C349.351 78.4501 331.364 67.5532 310.791 67.5532C279.333 67.5532 253.83 93.0564 253.83 124.514C253.83 155.961 279.333 181.464 310.791 181.464C322.997 181.464 334.297 177.614 343.569 171.091C353.909 191.838 375.322 206.105 400.083 206.105C424.844 206.105 446.266 191.838 456.595 171.091C465.878 177.614 477.167 181.464 489.373 181.464C520.82 181.464 546.323 155.961 546.323 124.514C546.325 93.0564 520.822 67.5532 489.375 67.5532Z" fill="#EFECE7"/>
</g>
<defs>
<clipPath id="clip0_1540_4356">
<rect width="800" height="800" fill="white"/>
</clipPath>
</defs>
</svg>
