<svg width="1024" height="1024" viewBox="0 0 1024 1024" fill="none" xmlns="http://www.w3.org/2000/svg">
<g clip-path="url(#clip0_78_58)">
<path d="M0 512V0H512H1024V512V1024H512H0V512ZM536.854 800.147C548.553 795.702 558.278 785.314 561.989 773.299C563.095 769.719 564 765.981 564 764.994C564 763.649 565.317 762.895 569.25 761.987C572.138 761.32 582.034 758.291 591.243 755.254L607.986 749.732L612.393 753.795C623.359 763.903 638.933 767.427 653.187 763.024C665.125 759.337 673.304 752.088 678.681 740.43C680.91 735.598 681.483 732.741 681.78 725C682.031 718.457 681.699 714.255 680.712 711.5L679.279 707.5L684.39 701.943C695.079 690.319 699.937 680.459 699.976 670.308C699.995 665.398 698.963 661.167 694.995 649.886C692.242 642.06 688.889 633.78 687.544 631.485C682.796 623.383 671.694 617.423 654.866 613.94C645.609 612.024 642.217 611.843 623.165 612.255L601.831 612.716L602.492 609.108C604.631 597.431 613.593 577.309 622.247 564.755C629.466 554.282 640.687 541.492 647.913 535.5C651.229 532.75 654.218 529.531 654.555 528.347C654.892 527.163 653.792 517.5 652.109 506.873C650.426 496.246 649.376 487.273 649.775 486.934C650.174 486.595 653.561 485.311 657.302 484.081L664.103 481.844L668.302 485.294C670.611 487.192 677 492.694 682.5 497.521C688 502.348 694.136 507.614 696.135 509.223C699.148 511.649 699.966 513.153 700.924 518.021C704.803 537.738 727.644 548.801 745.642 539.681L750.745 537.095L755.883 539.048C759.268 540.334 763.502 541 768.29 541H775.558L781.946 534.554C786.955 529.5 788.696 528.302 790.009 529.005C793.625 530.94 789.626 541 785.241 541C784.465 541 780.809 543.685 777.116 546.967C769.156 554.042 764.939 556 757.667 556C750.972 556 747 558.634 747 563.073C747 570.416 754.558 571.849 769.638 567.366C781.672 563.789 786.212 563.509 787.919 566.242C789.06 568.069 788.986 568.546 787.369 569.789C781.78 574.084 766.522 577.833 759.362 576.671C756.583 576.22 755.665 576.61 753.532 579.145C750.544 582.696 750.309 585.926 752.815 589.02C754.414 590.995 755.573 591.265 762.565 591.294C772.442 591.335 779.606 589.3 792 582.933C802.337 577.623 810.989 570.069 818.679 559.64C823.504 553.097 824.172 549.172 821 546C816.931 541.931 812.638 543.693 807.402 551.582C803.329 557.718 800.092 560.357 793.963 559.94C792.784 558.032 794.612 554.177 799.365 548.546C805.832 540.885 807 538.849 807 535.232C807 531.54 803.324 527.015 800.295 526.978C799.308 526.966 797.375 526.081 796 525.013L793.5 523.071L816.93 499.597C838.608 477.878 840.283 475.951 839.316 473.812C838.446 471.886 838.708 470.995 840.886 468.476C842.324 466.813 844.175 464.425 845 463.169C846.318 461.162 848.618 460.529 863.984 457.943C873.6 456.324 881.617 455 881.798 455C882.829 455 891.273 435.132 893.468 427.537C896.77 416.117 898.833 400.548 897.357 398.194C894.766 394.06 892.329 395.441 877.584 409.403L863.269 422.959L853.055 425.134L842.842 427.309L839.334 423.801L835.826 420.293L838.663 409.809L841.5 399.324L855.5 385.991C863.2 378.657 869.647 371.81 869.827 370.774C870.007 369.738 869.568 368.183 868.851 367.32C866.353 364.31 843.609 367.545 824.97 373.56C819.178 375.429 813.667 377.53 812.723 378.229C811.632 379.036 809.364 385.665 806.503 396.404C804.026 405.701 802 413.455 802 413.634C802 413.813 800.088 414.92 797.75 416.093C795.412 417.266 792.53 419.113 791.345 420.198C789.28 422.088 789.08 422.098 786.542 420.435L783.894 418.701L759.531 442.99C737.586 464.869 734.854 467.961 732.002 474.148C729.938 478.627 728.429 480.77 727.668 480.307C726.297 479.474 704.87 461.397 690.366 448.837C683.679 443.046 679.998 439.116 679.545 437.281C677.513 429.057 667.293 418.386 658.147 414.939C649.946 411.848 636.7 412.502 629.177 416.37C624.384 418.834 623.498 418.99 620.269 417.924C618.133 417.219 614.221 416.975 610.592 417.321C605.608 417.796 538.232 427.789 528.825 429.448C526.198 429.911 526.138 429.8 525.432 423.21C525.037 419.52 524.666 416.317 524.607 416.092C524.548 415.867 536.65 413.959 551.5 411.851C566.35 409.743 579.499 407.783 580.721 407.497C584.583 406.591 584.886 404.308 582.909 391C581.888 384.125 581.04 377.56 581.026 376.411C581.008 374.97 583.629 372.239 589.477 367.605C601.121 358.377 601.089 358.513 597.589 333.24C594.517 311.055 593.786 308.021 590.881 305.392C589.757 304.375 584.498 301.721 579.194 299.494L569.551 295.445L568.423 286.934C566.91 275.519 565.591 271.924 561.366 267.699C556.514 262.847 552.211 261 545.761 261C542.771 261 526.228 263.025 509 265.5C491.772 267.975 477.524 270 477.338 270C477.152 270 476.996 269.438 476.991 268.75C476.978 267.018 466.528 245.552 463.904 241.866L461.761 238.855L464.599 233.678C471.975 220.219 464.147 204.108 449.381 202.359C427.918 199.817 417.164 227.998 434.844 240.451C438.327 242.905 440.334 243.495 446.742 243.951L454.45 244.5L459.755 255C462.673 260.775 465.314 266.895 465.625 268.601C466.189 271.695 466.178 271.703 460.845 272.354C431.781 275.9 398.69 281.053 395.614 282.513C390.641 284.873 385.513 291.096 383.954 296.663C382.931 300.318 382.914 303.058 383.869 310.23C384.758 316.906 384.775 319.566 383.938 320.575C383.318 321.322 379.52 324.454 375.499 327.534C364.984 335.588 365.105 335.014 368.475 360.872C370.025 372.767 371.942 383.936 372.733 385.691C374.45 389.5 376.032 390.567 386.5 394.975C390.9 396.828 394.867 398.656 395.316 399.038C395.765 399.42 397.022 406.407 398.109 414.565C399.196 422.723 400.571 429.983 401.165 430.699C402.726 432.58 405.45 432.383 431.57 428.5C444.52 426.575 456.164 425 457.446 425C459.883 425 459.866 424.956 461.485 435.533L462.103 439.567L429.043 444.418L395.983 449.27L389.742 445.885C383.776 442.65 383.036 442.5 373 442.5C360.406 442.5 355.848 444.194 347.698 451.901C341.916 457.37 338.789 462.756 336.733 470.791C335.47 475.728 334.323 477.02 313.951 496.488C302.153 507.763 292.274 516.991 291.998 516.994C291.722 516.997 290.394 514.922 289.047 512.383C287.672 509.791 283.067 504.574 278.549 500.489C264.972 488.214 236.575 463.831 235.213 463.279C234.505 462.992 233.086 463.517 232.06 464.446C230.294 466.045 229.835 465.931 223.484 462.317L216.775 458.5L210.529 442.191C207.093 433.221 203.881 425.494 203.391 425.019C200.787 422.496 177.783 418.259 162.094 417.414C148.669 416.691 145 417.557 145 421.453C145 423.483 147.975 426.343 160.739 436.581L176.478 449.205L179.739 458.226C181.533 463.187 182.993 467.528 182.985 467.873C182.977 468.218 181.514 470.209 179.735 472.298L176.5 476.097L166.5 474.868L156.5 473.64L144.095 463.57C137.272 458.031 130.522 452.504 129.095 451.286C126.059 448.696 122.76 448.379 120.994 450.507C119.498 452.31 120.688 459.672 124.632 473C127.452 482.532 136.962 502.751 139.857 505.371C141.357 506.729 145.273 507.321 158.877 508.251L176.007 509.422L180.472 515.172C182.928 518.334 184.501 521.191 183.968 521.52C183.435 521.849 183.028 522.879 183.061 523.809C183.121 525.473 189.886 531.42 230.864 565.827L251.5 583.154L258 582.545C261.803 582.189 266.661 580.891 269.709 579.415C274.752 576.973 275.064 576.942 279.494 578.446C285.951 580.638 295.769 580.432 302.361 577.966C312.97 573.997 322 561.691 322 551.204C322 547.69 322.991 546.53 339.818 530.341L357.636 513.199L363.068 514.635C366.056 515.425 370.735 515.964 373.466 515.833L378.431 515.595L382.579 545.047C387.332 578.797 387.6 580.226 390.075 585.117C392.375 589.662 396.643 593.183 421.5 611.039C432.5 618.941 445.755 628.465 450.955 632.203C456.155 635.941 461.162 639 462.082 639C464.363 639 465.429 637.437 467.524 631.02C469.935 623.634 473.663 615.327 474.912 614.555C475.488 614.199 478.345 618.765 481.491 625.07C484.55 631.2 488.386 638.154 490.016 640.523L492.979 644.83L484.24 649.546C462.608 661.219 441.044 678.882 433.132 691.409C428.959 698.016 426 706.314 426 711.409C426 714.936 434.4 742.797 437.045 748.045C439.531 752.977 446.705 759.317 453.919 762.959C460.081 766.069 474.181 769.98 479.281 769.993C481.036 769.997 482.278 770.646 482.647 771.75C482.968 772.713 484.556 776.425 486.176 780C491.003 790.654 502.257 799.455 514.326 802.016C520.129 803.247 531.088 802.338 536.854 800.147ZM719.494 649.007C721.045 647.293 721.209 645.875 720.671 638.893C720.086 631.31 719.796 630.491 716.273 626.525C714.198 624.189 709.36 618.638 705.522 614.188C700.575 608.452 697.374 605.658 694.522 604.587C684.851 600.954 674.137 599.925 672.058 602.43C671.405 603.217 671.012 605.565 671.185 607.649C671.427 610.559 672.08 611.698 674 612.563C687.308 618.556 694.625 622.955 698.607 627.358C701.023 630.03 703.037 632.73 703.083 633.358C703.129 633.986 703.343 635.4 703.558 636.5C703.773 637.6 704.237 640.075 704.59 642C705.541 647.183 709.545 651 714.032 651C716.416 651 718.319 650.306 719.494 649.007ZM738.365 637.927C741.737 635.275 741.649 633.367 737.677 623C733.007 610.809 721.914 597.23 710.499 589.731C705.668 586.557 690.877 581 687.26 581C683.61 581 681 583.71 681 587.5C681 591.133 683.121 593.402 687.49 594.445C693.851 595.963 709.95 606.124 715.101 611.872C719.739 617.048 720.097 617.803 719.557 621.27C718.834 625.909 721.163 631 724.007 631C725.262 631 726.188 631.901 726.593 633.516C727.315 636.392 731.437 640 734 640C734.952 640 736.916 639.067 738.365 637.927ZM271.83 630.076C274.212 629.616 276.664 628.736 277.28 628.12C278.928 626.472 278.642 620.375 276.818 618.3C273.478 614.5 273.614 612.17 277.42 607.957C281.474 603.469 281.904 600.418 279.002 596.729C277.171 594.401 276.523 594.232 271.252 594.701C266.984 595.08 263.896 594.669 259.282 593.106C255.862 591.948 251.551 591 249.703 591C245.235 591 237.013 585.615 236.964 582.656C236.944 581.47 235.865 579.201 234.567 577.613C232.69 575.318 231.183 574.628 227.219 574.247C223.016 573.843 221.881 574.119 220.003 575.997C218.168 577.832 217.898 578.868 218.474 581.863C218.859 583.864 219.158 586.34 219.14 587.367C219.086 590.388 222.098 594.208 224.117 593.68C225.236 593.387 229.142 595.569 234.545 599.505L243.184 605.798L253.342 606.978C267.673 608.643 270.437 609.314 270.805 611.224C270.98 612.133 270.195 613.805 269.061 614.939C264.895 619.105 245.803 616.682 242.448 611.562C240.702 608.897 235.679 606.462 234.03 607.481C232.139 608.649 224.456 603.298 219.028 597.032C213.198 590.302 210.305 589.424 206.314 593.174C201.073 598.097 204.956 605.079 218.658 615.369C234.166 627.016 256.171 633.102 271.83 630.076ZM305.971 466.015C306.983 465.473 309.501 460.956 311.565 455.976C316.536 443.982 320.718 439.381 331.901 433.605C336.805 431.072 341.386 429 342.08 429C346.369 429 348.587 421.412 345.345 417.829C343.193 415.452 341.281 415.532 330.75 418.446C325.938 419.777 321.955 420.446 321.9 419.933C321.241 413.783 321.374 413.589 328.047 410.92C336.946 407.361 338.997 403.432 334.614 398.337L332.227 395.563L326.43 397.391C317.049 400.348 306.878 405.418 301.256 409.941C288.938 419.851 276.457 440.001 277.194 448.785C277.564 453.196 281.073 455.7 285.373 454.621C287.662 454.046 288.997 452.1 293.565 442.673C300.262 428.852 307.151 421.253 314.145 419.974C319.081 419.071 321.09 420.548 317.934 422.759C316.87 423.504 316 424.675 316 425.361C316 426.047 314.385 428.159 312.412 430.054C301.543 440.495 296 450.383 296 459.33C296 465.774 300.626 468.876 305.971 466.015ZM718.171 428.345C721.361 425.458 720.619 418.828 716.5 413.432C714.575 410.91 713.015 408.318 713.033 407.673C713.088 405.751 716.86 401.796 717.979 402.487C719.778 403.599 722.011 408.809 725 414C727.704 416.704 733.349 416.651 736.104 413.896C738.967 411.033 738.133 407.486 732.458 398.38C722.229 381.968 704.959 370.478 684.382 366.391L675.686 364.664L673.343 367.388C668.593 372.91 671.325 377.195 681 379.395C688.862 381.183 694.213 383.347 695.952 385.442C696.663 386.299 697.882 387 698.662 387C701.159 387 707.4 390.72 710.742 394.202C713.781 397.367 713.908 397.782 712.773 400.79C712.107 402.556 711.278 404 710.931 404C709.91 404 702.843 398.582 698.216 394.253C693.282 389.636 686.534 387.354 674.949 386.385C668.45 385.841 667.292 386 665.868 387.631C661.384 392.768 663.854 398.315 671.057 399.281C673.327 399.585 678.855 401.328 683.342 403.153C689.689 405.735 692.721 407.704 697 412.024C700.025 415.078 703.395 419.359 704.489 421.538C707.585 427.704 709.989 430 713.346 430C714.994 430 717.165 429.255 718.171 428.345Z" fill="#FEFEFE" stroke="#FEFEFE"/>
<path d="M514.326 802.016C502.257 799.455 491.003 790.654 486.176 780C484.556 776.425 482.968 772.713 482.647 771.75C482.278 770.646 481.036 769.997 479.281 769.993C474.181 769.98 460.081 766.069 453.919 762.959C446.705 759.317 439.531 752.977 437.045 748.045C434.4 742.797 426 714.936 426 711.409C426 706.314 428.959 698.016 433.132 691.409C441.044 678.882 462.608 661.219 484.24 649.546L492.979 644.83L490.016 640.523C488.386 638.154 484.55 631.2 481.491 625.07C478.345 618.765 475.488 614.199 474.912 614.555C473.663 615.327 469.935 623.634 467.524 631.02C465.429 637.437 464.363 639 462.082 639C461.162 639 456.155 635.941 450.955 632.203C445.755 628.465 432.5 618.941 421.5 611.039C396.643 593.183 392.375 589.662 390.075 585.117C387.6 580.226 387.332 578.797 382.579 545.047L378.431 515.595L373.466 515.833C370.735 515.964 366.056 515.425 363.068 514.635L357.636 513.199L339.818 530.341C322.991 546.53 322 547.69 322 551.204C322 561.691 312.97 573.997 302.361 577.966C295.769 580.432 285.951 580.638 279.494 578.446C275.064 576.942 274.752 576.973 269.709 579.415C266.661 580.891 261.803 582.189 258 582.545L251.5 583.154L230.864 565.827C189.886 531.42 183.121 525.473 183.061 523.809C183.028 522.879 183.435 521.849 183.968 521.52C184.501 521.191 182.928 518.334 180.472 515.172L176.007 509.422L158.877 508.251C145.273 507.321 141.357 506.729 139.857 505.371C136.962 502.751 127.452 482.532 124.632 473C120.688 459.672 119.498 452.31 120.994 450.507C122.76 448.379 126.059 448.696 129.095 451.286C130.522 452.504 137.272 458.031 144.095 463.57L156.5 473.64L166.5 474.868L176.5 476.097L179.735 472.298C181.514 470.209 182.977 468.218 182.985 467.873C182.993 467.528 181.533 463.187 179.739 458.226L176.478 449.205L160.739 436.581C147.975 426.343 145 423.483 145 421.453C145 417.557 148.669 416.691 162.094 417.414C177.783 418.259 200.787 422.496 203.391 425.019C203.881 425.494 207.093 433.221 210.529 442.191L216.775 458.5L223.484 462.317C229.835 465.931 230.294 466.045 232.06 464.446C233.086 463.517 234.505 462.992 235.213 463.279C236.575 463.831 264.972 488.214 278.549 500.489C283.067 504.574 287.672 509.791 289.047 512.383C290.394 514.922 291.722 516.997 291.998 516.994C292.274 516.991 302.153 507.763 313.951 496.488C334.323 477.02 335.47 475.728 336.733 470.791C338.789 462.756 341.916 457.37 347.698 451.901C355.848 444.194 360.406 442.5 373 442.5C383.036 442.5 383.776 442.65 389.742 445.885L395.983 449.27L429.043 444.418L462.103 439.567L461.485 435.533C459.866 424.956 459.883 425 457.446 425C456.164 425 444.52 426.575 431.57 428.5C405.45 432.383 402.726 432.58 401.165 430.699C400.571 429.983 399.196 422.723 398.109 414.565C397.022 406.407 395.765 399.42 395.316 399.038C394.867 398.656 390.9 396.828 386.5 394.975C376.032 390.567 374.45 389.5 372.733 385.691C371.942 383.936 370.025 372.767 368.475 360.872C365.105 335.014 364.984 335.588 375.499 327.534C379.52 324.454 383.318 321.322 383.938 320.575C384.775 319.566 384.758 316.906 383.869 310.23C382.914 303.058 382.931 300.318 383.954 296.663C385.513 291.096 390.641 284.873 395.614 282.513C398.69 281.053 431.781 275.9 460.845 272.354C466.178 271.703 466.189 271.695 465.625 268.601C465.314 266.895 462.673 260.775 459.755 255L454.45 244.5L446.742 243.951C440.334 243.495 438.327 242.905 434.844 240.451C417.164 227.998 427.918 199.817 449.381 202.359C464.147 204.108 471.975 220.219 464.599 233.678L461.761 238.855L463.904 241.866C466.528 245.552 476.978 267.018 476.991 268.75C476.996 269.438 477.152 270 477.338 270C477.524 270 491.772 267.975 509 265.5C526.228 263.025 542.771 261 545.761 261C552.211 261 556.514 262.847 561.366 267.699C565.591 271.924 566.91 275.519 568.423 286.934L569.551 295.445L579.194 299.494C584.498 301.721 589.757 304.375 590.881 305.392C593.786 308.021 594.517 311.055 597.589 333.24C601.089 358.513 601.121 358.377 589.477 367.605C583.629 372.239 581.008 374.97 581.026 376.411C581.04 377.56 581.888 384.125 582.909 391C584.886 404.308 584.583 406.591 580.721 407.497C579.499 407.783 566.35 409.743 551.5 411.851C536.65 413.959 524.548 415.867 524.607 416.092C524.666 416.317 525.037 419.52 525.432 423.21C526.138 429.8 526.198 429.911 528.825 429.448C538.232 427.789 605.608 417.796 610.592 417.321C614.221 416.975 618.133 417.219 620.269 417.924C623.498 418.99 624.384 418.834 629.177 416.37C636.7 412.502 649.946 411.848 658.147 414.939C667.293 418.386 677.513 429.057 679.545 437.281C679.998 439.116 683.679 443.046 690.366 448.837C704.87 461.397 726.297 479.474 727.668 480.307C728.429 480.77 729.938 478.627 732.002 474.148C734.854 467.961 737.586 464.869 759.531 442.99L783.894 418.701L786.542 420.435C789.08 422.098 789.28 422.088 791.345 420.198C792.53 419.113 795.412 417.266 797.75 416.093C800.088 414.92 802 413.813 802 413.634C802 413.455 804.026 405.701 806.503 396.404C809.364 385.665 811.632 379.036 812.723 378.229C815.337 376.294 834.465 370.357 843.727 368.606C848.252 367.751 855.463 366.758 859.751 366.4C868.143 365.7 870.528 366.736 869.827 370.774C869.647 371.81 863.2 378.657 855.5 385.991L841.5 399.324L838.663 409.809L835.826 420.293L839.334 423.801L842.842 427.309L853.055 425.134L863.269 422.959L877.584 409.403C892.329 395.441 894.766 394.06 897.357 398.194C898.833 400.548 896.77 416.117 893.468 427.537C891.273 435.132 882.829 455 881.798 455C881.617 455 873.6 456.324 863.984 457.943C848.618 460.529 846.318 461.162 845 463.169C844.175 464.425 842.324 466.813 840.886 468.476C838.707 470.996 838.446 471.885 839.317 473.813C840.288 475.961 838.046 478.443 807.937 508.563L775.512 541H768.266C763.501 541 759.262 540.332 755.883 539.048L750.745 537.095L745.642 539.681C727.644 548.801 704.803 537.738 700.924 518.021C699.966 513.153 699.148 511.649 696.135 509.223C694.136 507.614 688 502.348 682.5 497.521C677 492.694 670.611 487.192 668.302 485.294L664.103 481.844L657.302 484.081C653.561 485.311 650.174 486.595 649.775 486.934C649.376 487.273 650.426 496.246 652.109 506.873C653.792 517.5 654.892 527.163 654.555 528.347C654.218 529.531 651.229 532.75 647.913 535.5C640.687 541.492 629.466 554.282 622.247 564.755C613.593 577.309 604.631 597.431 602.492 609.108L601.831 612.716L623.165 612.255C642.217 611.843 645.609 612.024 654.866 613.94C671.694 617.423 682.796 623.383 687.544 631.485C688.889 633.78 692.242 642.06 694.995 649.886C698.963 661.167 699.995 665.398 699.976 670.308C699.937 680.459 695.079 690.319 684.39 701.943L679.279 707.5L680.712 711.5C681.699 714.255 682.031 718.457 681.78 725C681.369 735.718 678.746 742.943 672.495 750.571C658.083 768.159 629.632 769.685 612.393 753.795L607.986 749.732L591.243 755.254C582.034 758.291 572.138 761.32 569.25 761.987C565.317 762.895 564 763.649 564 764.994C564 765.981 563.095 769.719 561.989 773.299C558.278 785.314 548.553 795.702 536.854 800.147C531.088 802.338 520.129 803.247 514.326 802.016ZM535.611 790.578C538.432 789.287 542.573 786.574 544.813 784.55C549.237 780.553 554 772.062 554 768.173C554 765.911 553.735 765.784 550.25 766.389C529.762 769.944 501.245 772.602 496.461 771.401C492.548 770.419 491.823 771.731 493.96 775.921C501.825 791.337 519.99 797.729 535.611 790.578ZM527.53 760.515C568.348 755.452 613.774 740.018 647 719.924C651.675 717.097 657.075 713.888 659 712.792C666.949 708.268 679.704 696.427 684.604 689.022C690.357 680.329 692.556 668.762 689.903 661.15C688.557 657.289 687.562 657.808 684.769 663.829C682.191 669.386 666.391 685.521 661.544 687.546C659.728 688.305 656.95 689.987 655.371 691.283C652.499 693.641 650.337 694.926 633.5 704.29C628.55 707.043 624.021 709.877 623.435 710.586C621.861 712.493 592.797 724.372 579.786 728.426C544.431 739.443 521.712 743.3 491.5 743.418C468.584 743.507 463.713 742.83 451.725 737.887C447.8 736.268 443.958 735.185 443.188 735.481C441.39 736.171 442.289 740.043 445.544 745.636C449.14 751.814 460.554 757.253 476.633 760.448C485.973 762.304 512.826 762.339 527.53 760.515ZM654.18 753.155C661.325 749.696 666.639 744.48 670.026 737.599C672.662 732.245 673.141 730.126 673.166 723.703C673.182 719.535 672.906 715.656 672.552 715.084C672.168 714.463 669.204 716.003 665.205 718.899C655.385 726.01 646.575 731.199 631.717 738.623C624.447 742.255 618.323 745.39 618.107 745.589C616.735 746.855 626.088 752.842 633 755.122C637.471 756.597 649.348 755.494 654.18 753.155ZM512 733.537C584.084 725.839 663.304 688.375 679.529 654.312C682.539 647.992 682.794 640.815 680.162 636.5C676.035 629.735 663.209 624.042 647.274 621.903C638.672 620.749 607.125 621.219 602.346 622.573C600.724 623.032 600.103 624.12 599.831 626.975L599.469 630.767L606.832 631.434C622.162 632.823 630 638.155 630 647.194C630 660.063 609.147 672.338 563.5 686.339C517.92 700.319 494.914 702.443 485.478 693.544C482.405 690.645 482 689.68 482 685.245C482 681.235 482.653 679.261 485.25 675.423C488.054 671.28 497.305 663.166 502.615 660.195C504.115 659.355 503.99 658.881 501.42 655.66L498.549 652.062L490.025 656.658C465.077 670.109 445.344 686.812 438.232 700.5C434.888 706.937 434.632 714.68 437.629 718.724C447.584 732.155 474.582 737.533 512 733.537ZM514.371 688.955C522.63 687.83 546.833 681.924 561.658 677.416C573.733 673.744 601.481 662.815 609.5 658.573C617.973 654.091 619.762 652.439 620.582 648.339C621.384 644.327 618.726 642.384 610.377 640.875C601.825 639.33 600.848 639.341 599.953 641C598.72 643.287 597.664 646.412 597.841 647.25C597.928 647.662 597.471 648 596.824 648C595.699 648 575.797 653.943 537.91 665.592C528.236 668.567 519.71 671 518.964 671C518.218 671 515.9 669.816 513.813 668.37C510.519 666.087 509.798 665.922 508.355 667.12C507.441 667.879 506.571 668.275 506.422 668C506.273 667.725 503.389 669.447 500.013 671.828C490.906 678.25 487.505 685.139 491.917 688.229C494.455 690.007 504.309 690.325 514.371 688.955ZM534.25 657.876C540.162 656.152 545 654.297 545 653.754C545 653.211 543.48 650.683 541.622 648.134C527.94 629.367 523.477 603.867 528.646 574C528.979 572.075 530.351 567.179 531.695 563.119C533.277 558.34 533.795 555.395 533.166 554.766C532.036 553.635 521.659 559.153 513.774 565.078C502.566 573.499 485.58 592.243 481.964 600.18C479.027 606.626 497.237 639.982 512.028 655.25C518.723 662.161 519.319 662.231 534.25 657.876ZM574 645.165L589.5 640.393L590.263 630.946C591.945 610.123 595.548 596.071 603.536 579.175C608.875 567.881 617.721 554.223 620.208 553.434C621.93 552.887 625.77 547 624.404 547C624.048 547 626.341 544.055 629.501 540.456C632.661 536.857 635.04 533.707 634.788 533.455C634.536 533.203 618.618 535.904 599.415 539.457C552.655 548.108 545.077 549.589 544.46 550.206C543.73 550.936 540.247 563.096 538.36 571.5C535.912 582.403 535.389 606.751 537.394 616.5C540.205 630.169 551.502 650.043 556.418 649.968C557.563 649.95 565.475 647.789 574 645.165ZM460.666 624.75C461.097 624.062 463.352 619.289 465.676 614.141C477.426 588.115 499.178 564.317 524.646 549.623C528.576 547.355 532.221 544.825 532.744 544C533.379 542.999 532.727 536.341 530.786 524C529.186 513.825 525.719 490.978 523.083 473.228C520.447 455.478 518.112 440.786 517.895 440.577C517.678 440.368 511.875 441.063 505 442.121C432.862 453.22 400.645 457.899 399.833 457.397C398.221 456.401 390.865 459.425 387.135 462.617C381.122 467.764 380.256 472.349 382.466 487.325C383.449 493.984 384.616 500.122 385.06 500.966C385.909 502.579 388.629 522.037 388.833 527.961C389.029 533.646 393.078 560.134 394.018 561.881C394.497 562.771 395.363 567.003 395.943 571.284C396.523 575.565 397.717 580.163 398.595 581.504C400.163 583.897 403.904 586.787 431 606.534C448.781 619.492 458.182 626 459.119 626C459.539 626 460.235 625.438 460.666 624.75ZM262.272 572.8C268.153 571.038 276.426 562.996 279.909 555.655C285.863 543.108 286.574 527.782 281.668 517.754C279.428 513.176 275.965 509.797 256.928 493.619C244.753 483.273 234.451 475.189 234.035 475.654C225.354 485.353 194.963 522.361 195.189 522.958C195.445 523.635 233.449 556.393 250.03 570.23C254.913 574.305 256.287 574.593 262.272 572.8ZM300.967 568.164C308.101 564.647 312.198 558.403 312.796 550.137C313.627 538.642 305.804 527.091 296.896 526.663C293.675 526.508 293.485 526.689 293.196 530.15C292.931 533.332 293.464 534.365 297.365 538.21C302.025 542.804 303.809 547.638 302.61 552.416C301.653 556.231 296.38 560.85 292.211 561.526C286.555 562.443 284.612 563.487 283.016 566.47C281.701 568.927 281.727 569.327 283.269 570.455C285.899 572.378 294.742 571.233 300.967 568.164ZM578.5 534.043C596.1 530.733 618.054 526.727 627.287 525.142C636.52 523.557 644.28 522.053 644.532 521.801C644.784 521.549 642.11 502.825 638.59 480.193C631.612 435.327 631.281 434.166 624.127 429.5C622.132 428.199 618.853 426.837 616.84 426.473C613.365 425.845 532.736 437.171 528.937 438.821C527.562 439.418 528.25 445.324 534.666 488C538.676 514.675 542.207 537.538 542.512 538.807C542.899 540.417 543.584 540.955 544.783 540.587C545.727 540.297 560.9 537.353 578.5 534.043ZM324.171 535.345C325.177 534.435 326 532.948 326 532.041C326 530.078 332.334 523.667 333.31 524.643C334.285 525.618 338.005 521.988 337.972 520.095C337.957 519.218 340.544 516.164 343.722 513.309L349.5 508.117L345.888 504.309C342.149 500.367 339.726 496.492 338.032 491.75C337.492 490.237 336.623 489 336.103 489C335.225 489 304.776 517.618 304.274 518.915C304.15 519.237 306.064 520.85 308.528 522.5C312.746 525.325 319.204 532.915 318.901 534.691C318.419 537.513 321.371 537.879 324.171 535.345ZM738.532 532.551C742.438 530.919 742.778 529.513 740.056 526.25C738.585 524.486 737.133 523.999 733.34 523.996C727.336 523.991 722.918 521.454 720.67 516.717C718.01 511.112 718.541 508.914 724.051 502.732C728.667 497.553 729.046 496.76 728.44 493.532C727.693 489.553 727.319 489.422 722.468 491.449C719.027 491.88 714.739 494.627 714 496.558C714 497.288 713.053 499.491 711.895 501.453C709.055 506.267 708.981 514.911 711.726 521.115C716.191 531.206 728.839 536.601 738.532 532.551ZM799.999 503.501L828.485 475.002L807.001 453.501C795.185 441.675 785.06 432 784.5 432C782.877 432 742.353 473.183 740.712 476.5C733.973 490.123 737.952 510.511 749.843 523.289C755.332 529.188 760.785 531.948 767.007 531.978L771.513 532L799.999 503.501ZM733 514.649C733 513.188 730.636 508 729.97 508C728.481 508 727.801 512.055 729.04 513.548C730.09 514.814 733 515.623 733 514.649ZM207.888 492.583C216.701 482.179 223.676 473.285 223.388 472.819C221.758 470.181 214.16 467.641 207.997 467.673C197.482 467.728 189.087 473.034 184.419 482.576C182.087 487.342 181.799 488.942 182.217 494.788C182.482 498.488 183.403 502.862 184.264 504.508C186.211 508.228 189.897 512.209 191.021 511.804C191.485 511.637 199.075 502.987 207.888 492.583ZM375.777 506.159C376.8 505.51 376.652 502.875 375.028 492.924C373.913 486.091 373 478.668 373 476.428C373 470.36 375.666 463.661 380.075 458.652C382.234 456.2 384 453.968 384 453.694C384 452.519 377.269 451.001 372.101 451.01C358.235 451.034 346.536 461.99 345.252 476.154C344.331 486.307 348.328 495.334 356.502 501.569C361.845 505.644 372.565 508.197 375.777 506.159ZM703.663 497.25C704.629 495.188 707.87 491.128 710.865 488.229L716.312 482.959L711.96 479.229C690.229 460.605 682.436 454.23 681.846 454.595C681.466 454.83 680.839 456.48 680.455 458.261C679.651 461.984 676.635 468.223 673.752 472.122C672.661 473.598 671.933 475.28 672.134 475.861C672.567 477.11 700.177 500.98 701.203 500.992C701.59 500.997 702.697 499.312 703.663 497.25ZM173.192 492.75C173.388 488.763 173.49 485.378 173.419 485.229C173.348 485.08 168.607 484.393 162.883 483.703L152.476 482.449L143.499 475.224C138.562 471.251 133.979 468 133.315 468C132.454 468 132.646 469.565 133.984 473.454C135.867 478.926 142.932 494.191 144.882 497C145.932 498.512 153.449 499.491 166.668 499.838L172.836 500L173.192 492.75ZM656.759 474.433C677.638 464.029 677.484 434.324 656.5 424.387C650.955 421.761 641.668 421.174 636.144 423.1L632.99 424.199L636.007 428.009C640.32 433.454 641.381 437.206 644.559 458.25C647.792 479.658 647.377 479.108 656.759 474.433ZM837.119 457.5C841.022 449.001 838.97 437.591 832.139 429.811C825.658 422.43 812.095 419.647 802.762 423.785C793.912 427.709 793.637 427.114 813.532 447.032C830.807 464.327 831.48 464.877 833.348 463.218C834.412 462.273 836.109 459.7 837.119 457.5ZM201 459.528C204.217 458.788 206.389 457.772 206.233 457.08C205.616 454.346 197.724 433.432 197.028 432.684C195.982 431.561 173.366 427.023 168.75 427.01C166.688 427.004 165 427.343 165 427.763C165 428.183 169.08 431.637 174.066 435.44C183.215 442.417 184.676 444.229 187.024 451.5C189.999 460.714 190.965 462.251 193.306 461.499C194.513 461.111 197.975 460.224 201 459.528ZM864.695 448.387L875.891 446.63L879.338 439.065C883.1 430.809 887 418.959 887 415.785C887 414.255 884.69 415.905 877.25 422.752L867.5 431.724L857.25 433.515C851.612 434.5 847 435.712 847 436.21C847 436.708 847.521 440.27 848.158 444.126C849.207 450.48 849.512 451.091 851.408 450.641C852.559 450.368 858.537 449.354 864.695 448.387ZM496.193 434.087C506.474 432.493 515.296 430.935 515.797 430.626C516.78 430.018 515.398 418.97 514.198 417.846C513.487 417.18 471.701 422.449 470.164 423.399C469.334 423.912 470.485 435.357 471.538 437.061C471.835 437.541 473.298 437.721 474.789 437.46C476.28 437.199 485.912 435.681 496.193 434.087ZM465.609 414.533C555.408 402.091 573.098 399.558 573.941 399.018C574.385 398.733 573.916 392.65 572.899 385.5C571.882 378.35 568.093 351.395 564.479 325.599C560.865 299.803 557.52 277.978 557.046 277.099C555.088 273.469 551.003 270.756 546.812 270.3C544.309 270.028 524.88 272.39 500.5 275.932C477.4 279.288 445.505 283.781 429.622 285.917C398.059 290.162 397.068 290.476 393.665 297.32C391.605 301.464 390.979 295.751 402.994 382.5C405.736 402.3 407.984 419.288 407.99 420.25C407.996 421.286 408.759 422 409.859 422C410.882 422 435.969 418.64 465.609 414.533ZM830.403 404.75L833.135 394.5L842.317 385.8C852.497 376.155 852.368 375.595 840.644 378.548C828.313 381.654 819.099 385.11 818.602 386.817C818.333 387.743 816.931 393 815.487 398.5C814.043 404 812.638 409.288 812.364 410.25C811.977 411.609 812.495 412.018 814.683 412.08C816.233 412.124 819.525 412.741 822 413.45C824.475 414.159 826.764 414.797 827.086 414.869C827.408 414.941 828.901 410.388 830.403 404.75ZM394 385.649C394 382.894 387.131 334.111 386.475 332.207C386.173 331.329 384.256 332.252 380.515 335.077C377.482 337.367 375 339.524 374.999 339.87C374.992 343.024 380.316 379.042 381.051 380.809C381.621 382.18 384.141 384.086 387.255 385.501C393.841 388.494 394 388.497 394 385.649ZM585 359.408C587.475 357.443 589.858 355.201 590.295 354.426C591.089 353.018 586.578 317.174 585.161 313.629C584.368 311.644 572.341 305.639 571.591 306.853C571.348 307.246 572.904 319.478 575.049 334.034C577.194 348.59 578.961 361.062 578.975 361.75C579.014 363.699 580.152 363.257 585 359.408ZM454.564 231.94C464.611 222.501 452.718 205.737 440.92 212.706C435.76 215.754 433.511 223.688 436.353 228.81C439.875 235.157 449.398 236.793 454.564 231.94Z" fill="#020202" stroke="#020202"/>
<path d="M781.621 574.288C781.276 573.943 782.795 572.587 784.997 571.274C789.363 568.67 789.545 568.3 787.676 565.843C785.976 563.608 780.767 564.047 769.638 567.361C754.564 571.85 747 570.417 747 563.073C747 558.634 750.972 556 757.667 556C764.939 556 769.156 554.042 777.116 546.967C780.809 543.685 784.503 541 785.326 541C786.149 541 787.956 539.652 789.343 538.004C792.05 534.787 792.332 530.442 789.931 528.958C788.981 525.715 795.718 521.252 796.047 525.034C797.566 526.116 799.547 527 800.45 527C803.331 527 807 531.612 807 535.232C807 538.849 805.832 540.885 799.365 548.546C794.612 554.177 792.784 558.032 797.742 559.455C800.092 560.357 803.329 557.718 807.402 551.582C812.638 543.693 816.931 541.931 821 546C825.065 550.065 823.011 554.969 811.594 568.461C807.157 573.704 807.732 570.408 812.222 564.859C821.331 553.602 822.891 549.815 819.555 547.046C816.683 544.663 813.697 546.392 808.057 553.706C800.472 563.541 783.831 576.498 781.621 574.288ZM766.412 566.501C776.815 564.297 785.219 559.915 792.555 552.871C805.616 540.33 808.952 530 799.942 530C797.775 530 796.608 531.096 793.623 535.932C786.201 547.956 772.426 556.602 758.979 557.675C754.866 558.003 750.938 558.715 750.25 559.258C748.659 560.514 748.628 565.228 750.2 566.8C751.802 568.402 757.975 568.288 766.412 566.501Z" fill="#FAF8E8" stroke="#FAF8E8"/>
<path d="M514.344 654.488C508.223 649.032 495.498 631.091 490.238 620.5C485.499 610.958 482.6 602.203 483.701 600.76C484.23 600.067 487.708 595.346 491.431 590.27C499.19 579.691 515.214 565.297 525.095 560.03L531.272 556.738L530.488 560.619C530.057 562.754 529.565 566.075 529.395 568C529.225 569.925 528.851 572.85 528.563 574.5C523.513 603.462 527.978 629.123 541.312 647.768C543.191 650.395 544.006 652.39 543.432 652.956C542.919 653.462 537.48 655.185 531.344 656.786L520.188 659.697L514.344 654.488Z" fill="#2A4363" stroke="#2A4363"/>
<path d="M633 755.122C626.088 752.842 616.735 746.855 618.107 745.589C618.323 745.39 624.447 742.255 631.717 738.623C646.575 731.199 655.385 726.01 665.205 718.899C669.204 716.003 672.168 714.463 672.552 715.084C672.906 715.656 673.182 719.535 673.166 723.703C673.141 730.126 672.662 732.245 670.026 737.599C664.584 748.653 654.79 755.095 642.605 755.633C638.697 755.806 634.375 755.576 633 755.122Z" fill="#F6E35A" stroke="#F6E35A"/>
<path d="M250.03 570.23C233.449 556.393 195.445 523.635 195.189 522.958C194.963 522.361 225.354 485.353 234.035 475.654C234.451 475.189 244.753 483.273 256.928 493.619C275.965 509.797 279.428 513.176 281.668 517.754C286.574 527.782 285.863 543.108 279.909 555.655C275.157 565.669 264.381 574.063 256.384 573.98C255.348 573.969 252.489 572.282 250.03 570.23Z" fill="#EE7760" stroke="#EE7760"/>
<path d="M514.929 792.688C505.411 790.007 498.207 784.246 493.96 775.921C491.823 771.731 492.548 770.419 496.461 771.401C501.245 772.602 529.762 769.944 550.25 766.389C553.735 765.784 554 765.911 554 768.173C554 772.062 549.237 780.553 544.813 784.55C536.577 791.99 524.312 795.331 514.929 792.688Z" fill="#EE7760" stroke="#EE7760"/>
<path d="M316.701 530.754C314.7 527.864 311.034 524.15 308.555 522.5C306.076 520.85 304.15 519.237 304.274 518.915C304.776 517.618 335.225 489 336.103 489C336.623 489 337.492 490.237 338.032 491.75C339.723 496.485 342.147 500.366 345.846 504.256C348.923 507.492 349.216 508.192 347.959 509.317C347.157 510.035 340.613 516.334 333.419 523.315L320.338 536.008L316.701 530.754Z" fill="#EE7760" stroke="#EE7760"/>
<path d="M550.034 644.25C544.028 636.223 539.328 625.906 537.394 616.5C535.389 606.751 535.912 582.403 538.36 571.5C540.247 563.096 543.73 550.936 544.46 550.206C545.077 549.589 552.655 548.108 599.415 539.457C618.618 535.904 634.514 533.181 634.738 533.405C634.962 533.629 631.613 538.017 627.296 543.156C603.703 571.243 593.045 596.508 590.263 630.946L589.5 640.393L574 645.165C565.475 647.789 557.563 649.95 556.418 649.968C555.029 649.989 552.904 648.085 550.034 644.25Z" fill="#EE7760" stroke="#EE7760"/>
<path d="M475 760.038C457.361 756.259 450.32 751.898 445.892 742.008C444.343 738.547 444.305 738 445.615 738C446.449 738 447.981 738.454 449.019 739.01C450.057 739.565 452.84 740.212 455.203 740.445C457.566 740.678 461.975 741.461 465 742.185C474.255 744.399 509.5 743.797 526.856 741.13C552.859 737.134 581.497 728.927 607.808 717.931C616.929 714.119 624.865 710.999 625.445 710.998C626.025 710.997 631.367 708.072 637.316 704.498C643.265 700.924 648.358 698 648.635 698C649.659 698 658.583 691.612 661.07 689.098C662.484 687.669 666.864 683.665 670.805 680.2C674.746 676.735 680.042 670.997 682.573 667.45C685.104 663.903 687.514 661 687.927 661C689.347 661 691 666.099 691 670.482C691 674.827 689.583 679.976 688.112 680.98C687.693 681.266 685.471 684.288 683.175 687.695C680.879 691.102 675.288 697.118 670.75 701.065C666.212 705.012 660.348 710.144 657.719 712.469C652.669 716.934 632.275 728.743 620.5 734.019C590.993 747.241 557.427 756.806 527.53 760.515C510.813 762.589 485.848 762.362 475 760.038Z" fill="#2A4363" stroke="#2A4363"/>
<path d="M495.25 688.255C492.925 687.098 492 685.949 492 684.219C492 681.706 494.204 679.289 504.379 670.646L510.093 665.793L513.85 668.396C515.916 669.828 518.218 671 518.964 671C519.71 671 528.236 668.567 537.91 665.592C547.584 662.617 564.725 657.421 576 654.045C600.849 646.605 601 646.545 601 644.057C601 640.914 604.013 639.944 610.502 641C617.057 642.067 621.017 644.253 620.962 646.773C620.941 647.723 618.944 650.051 616.524 651.946C614.104 653.841 612.289 655.657 612.49 655.983C613.22 657.164 602.696 662.224 586.433 668.511C567.439 675.854 559.705 678.306 538 683.869C513.949 690.033 501.409 691.32 495.25 688.255Z" fill="#2A4363" stroke="#2A4363"/>
<path d="M542.512 538.807C542.207 537.538 538.676 514.675 534.666 488C528.25 445.324 527.562 439.418 528.937 438.821C532.736 437.171 613.365 425.845 616.84 426.473C618.853 426.837 622.132 428.199 624.127 429.5C631.281 434.166 631.612 435.327 638.59 480.193C642.11 502.825 644.784 521.549 644.532 521.801C644.28 522.053 636.52 523.557 627.287 525.142C607.785 528.491 547.308 539.812 544.783 540.587C543.584 540.955 542.899 540.417 542.512 538.807ZM600 502.849C605.467 500.478 610.443 495.864 613.32 490.5C616.371 484.811 616.369 472.202 613.317 466.455C610.483 461.118 603.3 454.596 598.416 452.924C593.315 451.177 583.464 451.359 578.86 453.284C573.879 455.367 567.284 461.525 564.778 466.432C563.558 468.821 562.504 473.239 562.224 477.135C561.824 482.713 562.141 484.624 564.217 489.135C570.897 503.648 585.37 509.194 600 502.849Z" fill="#EE7760" stroke="#EE7760"/>
<path d="M364.821 505.605C352.379 502.255 344.025 489.684 345.252 476.154C346.536 461.99 358.235 451.034 372.101 451.01C377.269 451.001 384 452.519 384 453.694C384 453.968 382.234 456.2 380.075 458.652C375.666 463.661 373 470.36 373 476.428C373 478.668 373.913 486.091 375.028 492.924C377.219 506.354 377.074 507.023 372 506.917C370.625 506.888 367.395 506.298 364.821 505.605Z" fill="#F6E35A" stroke="#F6E35A"/>
<path d="M407.99 420.25C407.984 419.288 405.736 402.3 402.994 382.5C390.979 295.751 391.605 301.464 393.665 297.32C397.068 290.476 398.059 290.162 429.622 285.917C445.505 283.781 477.4 279.288 500.5 275.932C524.88 272.39 544.309 270.028 546.812 270.3C551.003 270.756 555.088 273.469 557.046 277.099C557.52 277.978 560.865 299.803 564.479 325.599C568.093 351.395 571.882 378.35 572.899 385.5C573.916 392.65 574.385 398.733 573.941 399.018C573.098 399.558 555.408 402.091 465.609 414.533C435.969 418.64 410.882 422 409.859 422C408.759 422 407.996 421.286 407.99 420.25ZM497.59 395.006C509.474 392.01 520.514 386.151 528.894 378.392C537.118 370.777 539.406 367.123 538.507 363.031C537.691 359.314 535.054 357.045 530.738 356.345C527.536 355.825 526.689 356.27 521.098 361.41C507.308 374.087 495.167 379.225 479 379.225C468.359 379.225 463.845 378.051 452.329 372.284C443.736 367.981 442.962 367.774 440.032 368.987C433.361 371.75 432.494 379.702 438.324 384.633C450.83 395.211 477.95 399.957 497.59 395.006ZM450.658 355.175C458.903 350.969 466 339.785 466 331C466 324.883 462.893 317.798 458.116 313.021C444.739 299.644 422.904 303.692 415.079 321C412.415 326.892 412.33 336.929 414.897 342.581C420.769 355.51 438.063 361.601 450.658 355.175ZM532.704 343.355C542.353 338.8 547.471 330.004 546.807 319.118C546.146 308.284 541.167 300.88 531.5 296.358C515.637 288.939 497.228 299.498 494.423 317.624C493.505 323.555 496.271 332.187 500.637 337.02C509.551 346.886 520.601 349.069 532.704 343.355Z" fill="#FAF8E8" stroke="#FAF8E8"/>
<path d="M429.382 355.989C418.953 351.852 413.044 343.175 413.044 332C413.044 313.235 430.351 300.638 448.053 306.518C457.981 309.815 466 320.754 466 331C466 339.785 458.903 350.969 450.658 355.175C444.742 358.193 435.8 358.535 429.382 355.989ZM443.219 347.956C447.648 346.726 452.51 342.849 454.536 338.931C456.709 334.728 456.414 326.405 453.95 322.418C450.887 317.462 445.549 314.567 439.535 314.598C430.472 314.645 423.222 320.852 422.26 329.388C421.317 337.756 425.666 344.693 433.637 347.535C438.378 349.225 438.611 349.236 443.219 347.956Z" fill="#020202" stroke="#020202"/>
<path d="M297.655 465.171C295.619 462.921 295.512 456.94 297.395 450.683C298.801 446.012 305.779 436.426 312.412 430.054C314.385 428.159 316 426.047 316 425.361C316 424.675 316.87 423.504 317.934 422.759C321.09 420.548 319.081 419.071 314.145 419.974C307.151 421.253 300.262 428.852 293.565 442.673C288.997 452.1 287.662 454.046 285.373 454.621C281.073 455.7 277.564 453.196 277.194 448.785C276.457 440.001 288.938 419.851 301.256 409.941C306.878 405.418 317.049 400.348 326.43 397.391L332.227 395.563L334.614 398.337C338.997 403.432 336.946 407.361 328.047 410.92C321.374 413.589 321.241 413.783 321.9 419.933C321.955 420.446 325.938 419.777 330.75 418.446C341.281 415.532 343.193 415.452 345.345 417.829C348.587 421.412 346.369 429 342.08 429C341.386 429 336.805 431.072 331.901 433.605C320.718 439.381 316.536 443.982 311.565 455.976C309.501 460.956 306.983 465.473 305.971 466.015C303.107 467.548 299.472 467.179 297.655 465.171ZM304.675 464.222C305.321 463.811 306.852 460.78 308.075 457.487C313.604 442.601 322.872 433.685 338.75 427.978C344.352 425.964 345 425.447 345 422.988C345 418.609 342.719 417.4 337.173 418.841C318.737 423.631 301.035 441.423 298.417 457.796C297.485 463.625 300.594 466.818 304.675 464.222ZM285.59 452.235C286.189 451.831 288.746 447.119 291.27 441.764C294.385 435.157 297.569 430.207 301.18 426.36C307.727 419.384 319.343 411.625 326.719 409.3C333.134 407.278 335.771 404.31 334.036 401.067C332.432 398.071 328.531 398.441 318.85 402.508C307.878 407.117 298.335 414.423 290.971 423.849C285.017 431.471 279 443.725 279 448.23C279 452.122 282.553 454.282 285.59 452.235Z" fill="#FBFDF4" stroke="#FBFDF4"/>
<path d="M757.765 591.3C751.283 590.572 748.97 584.471 753.278 579.463C755.335 577.072 756.331 576.785 763.528 576.517C767.912 576.353 773.654 575.662 776.288 574.981C781.102 573.736 783.711 574.318 780.971 576.025C778.612 577.495 766.495 580 761.744 580C756.078 580 753.728 581.72 754.164 585.549C754.491 588.423 754.661 588.508 760.65 588.795C773.301 589.402 791.286 582.668 802.958 572.955C809.667 567.372 810.921 567.868 805.439 573.936C801.403 578.403 785.635 586.944 777 589.34C770.572 591.124 763.034 591.892 757.765 591.3Z" fill="#FBFDF4" stroke="#FBFDF4"/>
<path d="M813.532 447.032C793.637 427.114 793.912 427.709 802.762 423.785C815.528 418.125 831.161 424.338 837.11 437.435C840.716 445.375 838.822 458.357 833.348 463.218C831.48 464.877 830.807 464.327 813.532 447.032Z" fill="#EE7760" stroke="#EE7760"/>
<path d="M750.2 566.8C748.628 565.228 748.659 560.514 750.25 559.258C750.938 558.715 754.866 558.003 758.979 557.675C772.426 556.602 786.201 547.956 793.623 535.932C796.608 531.096 797.775 530 799.942 530C805.742 530 806.574 534.871 801.993 542.01C797.275 549.363 786.928 558.671 779.725 562.042C769.191 566.972 752.983 569.583 750.2 566.8Z" fill="#F6E35A" stroke="#F6E35A"/>
<path d="M153.212 499.088C144.931 498.42 145.48 498.908 139.851 487.204C134.476 476.028 131.744 468 133.315 468C133.979 468 138.562 471.251 143.499 475.224L152.476 482.449L162.883 483.703C168.607 484.393 173.348 485.08 173.419 485.229C173.49 485.378 173.388 488.763 173.192 492.75L172.836 500L166.668 499.838C163.276 499.749 157.221 499.412 153.212 499.088Z" fill="#F6E35A" stroke="#F6E35A"/>
<path d="M247.5 628.584C235.752 625.602 229.41 623.066 223.458 618.971C216.89 614.452 219.218 614.072 226.523 618.471C229.744 620.411 234.698 622.866 237.532 623.926C249.736 628.492 268.572 630.446 274 627.71C277.191 626.101 277.691 622.691 275.115 620.115C273.368 618.368 272.225 618.18 266.304 618.663C262.562 618.969 257.925 618.759 256 618.199C252.805 617.269 253.132 617.172 259.75 617.09C265.663 617.016 267.38 616.62 269.061 614.939C270.195 613.805 270.98 612.133 270.805 611.224C270.437 609.313 267.676 608.643 253.303 606.973C244.565 605.958 242.52 605.357 239.007 602.774C234.066 599.14 234.55 597.825 239.761 600.726C245.227 603.769 253.234 605.889 262.023 606.622C270.871 607.36 276.239 606.618 278.515 604.342C281.843 601.014 280.976 604.021 277.498 607.871C273.611 612.173 273.46 614.479 276.818 618.3C278.642 620.375 278.928 626.472 277.28 628.12C273.94 631.46 259.704 631.681 247.5 628.584Z" fill="#FAF8E8" stroke="#FAF8E8"/>
<path d="M729.04 513.548C727.801 512.055 728.481 508 729.97 508C730.636 508 733 513.188 733 514.649C733 515.623 730.09 514.814 729.04 513.548Z" fill="#EE7760" stroke="#EE7760"/>
<path d="M686.5 488.95C678.8 482.332 672.335 476.442 672.134 475.861C671.933 475.28 672.661 473.598 673.752 472.122C676.635 468.223 679.651 461.984 680.455 458.261C680.839 456.48 681.466 454.83 681.846 454.595C682.436 454.23 690.229 460.605 711.96 479.229L716.312 482.959L710.865 488.229C707.87 491.128 704.629 495.188 703.663 497.25C702.697 499.312 701.59 500.997 701.203 500.992C700.816 500.987 694.2 495.568 686.5 488.95Z" fill="#EE7760" stroke="#EE7760"/>
<path d="M707.803 648.25C706.389 646.737 704.943 643.925 704.59 642C704.237 640.075 703.773 637.6 703.558 636.5C703.343 635.4 703.129 633.986 703.083 633.358C703.037 632.73 701.023 630.03 698.607 627.358C694.625 622.955 687.308 618.556 674 612.563C672.08 611.698 671.427 610.559 671.185 607.649C671.012 605.565 671.405 603.217 672.058 602.43C674.137 599.925 684.851 600.954 694.522 604.587C697.374 605.658 700.575 608.452 705.522 614.188C709.36 618.638 714.198 624.189 716.273 626.525C719.796 630.491 720.086 631.31 720.671 638.893C721.209 645.875 721.045 647.293 719.494 649.007C716.737 652.054 711.013 651.683 707.803 648.25ZM718.005 647.495C719.765 645.374 718.548 638.934 714.971 631.439C711.043 623.208 700.737 612.192 693.32 608.296C685.774 604.332 677.478 602.209 675.187 603.654C672.61 605.28 673.069 609.216 676 610.626C677.375 611.287 681.955 613.45 686.178 615.433C698.294 621.121 705.472 629.456 709.062 642C709.77 644.475 710.777 647.062 711.298 647.75C712.601 649.469 716.489 649.321 718.005 647.495Z" fill="#FBFDF4" stroke="#FBFDF4"/>
<path d="M188.004 509.804C184.297 505.875 182.717 501.775 182.217 494.788C181.799 488.942 182.087 487.342 184.419 482.576C189.087 473.034 197.482 467.728 207.997 467.673C214.16 467.641 221.758 470.181 223.388 472.819C223.896 473.64 192.718 511.193 191.021 511.804C190.557 511.971 189.2 511.071 188.004 509.804Z" fill="#EE7760" stroke="#EE7760"/>
<path d="M724.382 407.318C718.408 397.036 709.13 388.245 698.93 383.203C694.216 380.873 687.016 378.272 682.93 377.423C678.844 376.574 675.128 375.512 674.672 375.062C674.216 374.612 673.992 372.951 674.172 371.372C674.446 368.975 675.016 368.45 677.615 368.197C687.125 367.271 706.475 375.349 717.36 384.789C724.215 390.734 731.964 400.598 734.632 406.773C736.489 411.071 735.057 414 731.097 414C728.656 414 727.726 413.075 724.382 407.318Z" fill="#F6E35A" stroke="#F6E35A"/>
<path d="M433.637 347.535C422.625 343.609 418.513 330.571 425.428 321.505C432.822 311.81 447.688 312.286 453.95 322.418C456.414 326.405 456.709 334.728 454.536 338.931C452.51 342.849 447.648 346.726 443.219 347.956C438.611 349.236 438.378 349.225 433.637 347.535Z" fill="#F6E35A" stroke="#F6E35A"/>
<path d="M515.184 345.916C502.752 343.514 492.565 329.631 494.423 317.624C497.228 299.498 515.637 288.939 531.5 296.358C541.167 300.88 546.146 308.284 546.807 319.118C547.471 330.004 542.353 338.8 532.704 343.355C526.542 346.264 521.101 347.06 515.184 345.916ZM530.815 334.132C534.812 331.286 538 325.241 538 320.508C538 309.507 526.991 300.92 516.75 303.934C502.072 308.253 499.327 326.189 512.024 334.814C516.646 337.953 525.921 337.617 530.815 334.132Z" fill="#020202" stroke="#020202"/>
<path d="M255.763 605.967C243.879 603.966 234.254 598.52 225.284 588.723C220.59 583.596 219.129 579.754 221.011 577.487C223.423 574.581 226.36 575.845 232.094 582.257C241.322 592.577 252.099 597 268.01 597C277.371 597 279 597.756 279 602.102C279 604.234 278.335 605.036 275.851 605.902C272.31 607.136 262.889 607.167 255.763 605.967Z" fill="#F6E35A" stroke="#F6E35A"/>
<path d="M730.245 636.74C729.704 636.058 728.688 633.725 727.988 631.555C721.796 612.356 710.988 600.934 691.779 593.293C684.186 590.273 682.58 588.899 683.448 586.163C684.461 582.973 687.022 582.787 694.576 585.356C707.644 589.801 715.847 595.488 724.753 606.276C733.485 616.854 740.76 634.334 737.25 636.303C734.923 637.608 731.122 637.845 730.245 636.74Z" fill="#F6E35A" stroke="#F6E35A"/>
<path d="M189.714 458.852C188.945 457.008 187.734 453.7 187.024 451.5C184.676 444.229 183.215 442.417 174.066 435.44C169.08 431.637 165 428.183 165 427.763C165 427.343 166.688 427.004 168.75 427.01C173.366 427.023 195.982 431.561 197.028 432.684C197.724 433.432 205.616 454.346 206.233 457.08C206.389 457.772 204.217 458.788 201 459.528C197.975 460.224 194.513 461.111 193.306 461.499C191.475 462.087 190.881 461.65 189.714 458.852Z" fill="#F6E35A" stroke="#F6E35A"/>
<path d="M708.414 427.75C707.35 426.513 705.583 423.717 704.489 421.538C703.395 419.359 700.025 415.078 697 412.024C692.721 407.704 689.689 405.735 683.342 403.153C678.855 401.328 673.327 399.585 671.057 399.281C663.854 398.315 661.384 392.768 665.868 387.631C667.292 386 668.45 385.841 674.949 386.385C686.534 387.354 693.282 389.636 698.216 394.253C702.843 398.582 709.91 404 710.931 404C711.278 404 712.107 402.556 712.773 400.79C713.908 397.782 713.781 397.367 710.742 394.202C707.4 390.72 701.159 387 698.662 387C697.882 387 696.663 386.299 695.952 385.442C694.213 383.347 688.862 381.183 681 379.395C671.325 377.195 668.593 372.91 673.343 367.388L675.686 364.664L684.382 366.391C692.653 368.034 700.63 370.982 709.528 375.685C719.678 381.05 735.871 400.106 737.592 408.71C738.84 414.95 729.764 418.764 721.386 410.437C722.011 408.809 719.778 403.599 717.979 402.487C716.86 401.796 713.088 405.751 713.033 407.673C713.015 408.318 714.575 410.91 716.5 413.432C722.518 421.316 720.865 430 713.346 430C711.478 430 709.62 429.152 708.414 427.75ZM717.055 426.434C718.122 425.149 718.116 424.208 717.026 421.184C711.266 405.201 694.423 392.044 675.906 389.062C668.744 387.909 666 388.854 666 392.476C666 395.511 667.098 396.194 674.428 397.716C688.67 400.674 702.064 410.16 707.13 420.877C708.332 423.419 709.749 426.062 710.28 426.75C711.625 428.492 715.497 428.311 717.055 426.434ZM734.988 412.023C736.348 409.482 734.739 405.657 728.719 397.119C722.636 388.492 712.179 379.654 702.5 374.96C693.857 370.768 682.608 367.711 677.615 368.197C675.016 368.45 674.446 368.975 674.172 371.372C673.992 372.951 674.216 374.612 674.672 375.062C675.128 375.512 678.844 376.574 682.93 377.423C687.016 378.272 694.216 380.873 698.93 383.203C709.13 388.245 718.408 397.036 724.382 407.318C727.726 413.075 728.656 414 731.097 414C732.896 414 734.316 413.278 734.988 412.023Z" fill="#FBFDF4" stroke="#FBFDF4"/>
<path d="M822 413.45C819.525 412.741 816.233 412.124 814.683 412.08C812.495 412.018 811.977 411.609 812.364 410.25C812.638 409.288 814.043 404 815.487 398.5C816.931 393 818.333 387.743 818.602 386.817C819.099 385.11 828.313 381.654 840.644 378.548C852.368 375.595 852.497 376.155 842.317 385.8L833.135 394.5L830.403 404.75C828.901 410.388 827.408 414.941 827.086 414.869C826.764 414.797 824.475 414.159 822 413.45Z" fill="#F6E35A" stroke="#F6E35A"/>
<path d="M387.255 385.501C384.141 384.086 381.621 382.18 381.051 380.809C380.316 379.042 374.992 343.024 374.999 339.87C375 339.524 377.482 337.367 380.515 335.077C384.256 332.252 386.173 331.329 386.475 332.207C387.131 334.111 394 382.894 394 385.649C394 388.497 393.841 388.494 387.255 385.501Z" fill="#EE7760" stroke="#EE7760"/>
<path d="M711.298 647.75C710.777 647.062 709.77 644.475 709.062 642C705.472 629.456 698.294 621.121 686.178 615.433C681.955 613.45 677.375 611.287 676 610.626C673.069 609.216 672.61 605.28 675.187 603.654C677.478 602.209 685.774 604.332 693.32 608.296C710.637 617.393 727.084 649 714.5 649C713.26 649 711.819 648.438 711.298 647.75Z" fill="#F6E35A" stroke="#F6E35A"/>
<path d="M724.239 532.665C715.315 529.428 709.643 520.919 709.736 510.906C709.795 504.546 711.562 500.491 716.249 495.961C719.348 492.966 724.704 490 727.013 490C729.013 490 726.917 497.392 724.36 499.354C719.096 503.393 717.627 510.304 720.67 516.717C722.918 521.454 727.336 523.991 733.34 523.996C737.133 523.999 738.585 524.486 740.056 526.25C742.778 529.513 742.438 530.919 738.532 532.551C734.432 534.264 728.773 534.309 724.239 532.665Z" fill="#2A4363" stroke="#2A4363"/>
<path d="M754.667 588.333C754.3 587.966 754 586.408 754 584.869C754 581.418 756.367 580.005 762.184 579.985C777.713 579.932 795.728 569.6 808.057 553.677C813.696 546.394 816.689 544.668 819.555 547.046C821.647 548.782 821.33 552.718 818.805 556.346C805.556 575.387 781.733 588.936 761.417 588.985C758.071 588.993 755.034 588.7 754.667 588.333Z" fill="#F6E35A" stroke="#F6E35A"/>
<path d="M461.021 394.932C446.641 391.168 435.737 384.634 434.51 379.046C433.648 375.122 436.128 370.604 440.032 368.987C442.962 367.774 443.736 367.981 452.329 372.284C463.845 378.051 468.359 379.225 479 379.225C495.167 379.225 507.308 374.087 521.098 361.41C526.689 356.27 527.536 355.825 530.738 356.345C537.371 357.421 540.528 363.144 537.607 368.793C534.83 374.164 522.214 384.799 513.601 389.031C497.287 397.047 477.559 399.261 461.021 394.932Z" fill="#EE7760" stroke="#EE7760"/>
<path d="M280.2 451.8C278.297 449.897 278.776 446.396 281.997 438.68C288.401 423.338 302.719 409.285 318.85 402.508C328.531 398.441 332.432 398.071 334.036 401.067C335.771 404.31 333.134 407.278 326.719 409.3C319.343 411.625 307.727 419.384 301.18 426.36C297.569 430.207 294.385 435.157 291.27 441.764C288.746 447.119 286.189 451.831 285.59 452.235C283.95 453.341 281.547 453.147 280.2 451.8Z" fill="#F6E35A" stroke="#F6E35A"/>
<path d="M583.326 504.977C574.764 503.24 568.208 497.805 564.217 489.135C562.141 484.624 561.824 482.713 562.224 477.135C562.504 473.239 563.558 468.821 564.778 466.432C567.284 461.525 573.879 455.367 578.86 453.284C583.464 451.359 593.315 451.177 598.416 452.924C603.3 454.596 610.483 461.118 613.317 466.455C616.369 472.202 616.371 484.811 613.32 490.5C607.612 501.143 594.834 507.311 583.326 504.977Z" fill="#F6E35A" stroke="#F6E35A"/>
<path d="M298.996 463.495C297.216 461.35 298.463 454.91 302.161 447.162C308.247 434.41 322.916 422.545 337.173 418.841C342.719 417.4 345 418.609 345 422.988C345 425.447 344.352 425.964 338.75 427.978C322.872 433.685 313.604 442.601 308.075 457.487C306.852 460.78 305.321 463.811 304.675 464.222C302.781 465.427 300.34 465.115 298.996 463.495Z" fill="#F6E35A" stroke="#F6E35A"/>
<path d="M710.28 426.75C709.749 426.062 708.332 423.419 707.13 420.877C702.064 410.16 688.67 400.674 674.428 397.716C667.098 396.194 666 395.511 666 392.476C666 388.854 668.744 387.909 675.906 389.062C694.423 392.044 711.266 405.201 717.026 421.184C718.116 424.208 718.122 425.149 717.055 426.434C715.497 428.311 711.625 428.492 710.28 426.75Z" fill="#F6E35A" stroke="#F6E35A"/>
<path d="M254 628.307C238.581 625.715 226.076 619.61 215.011 609.269C206.827 601.621 204.808 598.142 207.011 595.487C209.36 592.657 212.251 593.974 220.056 601.431C230.432 611.344 240.948 616.577 253.613 618.127C258.501 618.725 264.859 618.938 267.742 618.6C272.204 618.076 273.293 618.293 275.054 620.054C277.688 622.688 277.22 626.087 274 627.71C271.64 628.9 259.653 629.257 254 628.307Z" fill="#F6E35A" stroke="#F6E35A"/>
<path d="M644.559 458.25C641.381 437.206 640.32 433.454 636.007 428.009L632.99 424.199L636.144 423.1C641.668 421.174 650.955 421.761 656.5 424.387C677.484 434.324 677.638 464.029 656.759 474.433C647.377 479.108 647.792 479.658 644.559 458.25Z" fill="#F6E35A" stroke="#F6E35A"/>
<path d="M471.448 733.917C456.399 732.159 443.187 726.222 437.629 718.724C434.632 714.68 434.888 706.937 438.232 700.5C445.344 686.812 465.077 670.109 490.025 656.658L498.549 652.062L501.42 655.66C503.99 658.881 504.115 659.355 502.615 660.195C497.305 663.166 488.054 671.28 485.25 675.423C482.653 679.261 482 681.235 482 685.245C482 689.68 482.405 690.645 485.478 693.544C494.914 702.443 517.92 700.319 563.5 686.339C609.147 672.338 630 660.063 630 647.194C630 638.155 622.162 632.823 606.832 631.434L599.469 630.767L599.831 626.975C600.103 624.12 600.724 623.032 602.346 622.573C607.125 621.219 638.672 620.749 647.274 621.903C663.209 624.042 676.035 629.735 680.162 636.5C684.311 643.301 681.449 654.215 672.779 664.65C638.86 705.476 534.71 741.308 471.448 733.917Z" fill="#F6E35A" stroke="#F6E35A"/>
<path d="M848.158 444.126C847.521 440.27 847 436.708 847 436.21C847 435.712 851.612 434.5 857.25 433.515L867.5 431.724L877.25 422.752C884.69 415.905 887 414.255 887 415.785C887 418.959 883.1 430.809 879.338 439.065L875.891 446.63L864.695 448.387C858.537 449.354 852.559 450.368 851.408 450.641C849.512 451.091 849.207 450.48 848.158 444.126Z" fill="#F6E35A" stroke="#F6E35A"/>
<path d="M285.87 569.829C284.432 568.656 284.403 568.117 285.623 565.25C286.677 562.773 287.623 562 289.602 562C291.03 562 293.702 561.286 295.54 560.414C304.735 556.051 306.098 541.766 297.877 535.912C294.485 533.497 293.701 527.998 296.75 528.004C299.034 528.009 304.867 531.584 307.882 534.826C316.474 544.067 313.842 560.494 302.661 567.406C297.185 570.792 288.573 572.034 285.87 569.829Z" fill="#2A4363" stroke="#2A4363"/>
<path d="M448.5 619.172C404.013 586.973 400.386 584.237 398.629 581.556C396.928 578.96 395.406 570.655 394.535 559.208C394.23 555.197 393.531 548.897 392.983 545.208C392.435 541.519 391.729 536.475 391.414 534C391.099 531.525 390.445 528.6 389.961 527.5C388.897 525.082 386.097 506.641 385.634 499C385.451 495.975 384.702 489.371 383.97 484.325C382.892 476.894 382.878 474.352 383.896 470.953C386.793 461.284 392.456 459.155 430.5 453.438C459.177 449.129 480.721 445.856 505 442.121C511.875 441.063 517.68 440.37 517.899 440.581C518.118 440.792 519.373 448.285 520.689 457.232C525.719 491.442 533.113 539.57 533.579 541.141C533.943 542.366 532.4 543.56 527.487 545.859C511.565 553.31 488.251 573.904 476.95 590.5C473.954 594.9 468.577 604.327 465.001 611.449C461.425 618.571 458.05 624.526 457.5 624.681C456.95 624.836 452.9 622.357 448.5 619.172Z" fill="#2A4363" stroke="#2A4363"/>
<path d="M512.024 334.814C506.658 331.169 504 326.527 504 320.802C504 315.242 505.553 311.687 509.661 307.842C523.185 295.183 544.461 311.416 536.023 327.956C533.088 333.708 528.748 336.36 521.543 336.803C516.465 337.115 514.945 336.798 512.024 334.814Z" fill="#F6E35A" stroke="#F6E35A"/>
<path d="M689.524 663.075C688.766 660.687 687.941 660.489 686.078 662.25C684.988 663.281 684.953 663.115 685.883 661.306C687.678 657.813 688.726 657.775 689.907 661.163C690.513 662.902 690.823 664.51 690.596 664.737C690.369 664.964 689.886 664.216 689.524 663.075Z" fill="#0F1319" stroke="#0F1319"/>
<path d="M728.773 637.25C727.928 636.287 726.928 634.487 726.551 633.25C726.153 631.943 725.066 631 723.958 631C721.073 631 718.838 625.866 719.613 621.02C719.967 618.809 720.582 617 720.98 617C721.755 617 727.339 628.844 728.524 633C728.916 634.375 729.928 636.287 730.773 637.25C731.618 638.213 731.86 639 731.31 639C730.76 639 729.618 638.213 728.773 637.25Z" fill="#FAF8E8" stroke="#FAF8E8"/>
<path d="M243.313 616.061C234.183 612.774 227.714 608.682 219.9 601.25C212.249 593.973 209.345 592.674 207.011 595.487C204.901 598.03 206.728 601.517 213.487 607.839C217.069 611.19 220 614.172 220 614.466C220 617.18 209.289 608.822 206.05 603.581C203.37 599.245 203.456 595.859 206.314 593.174C210.305 589.424 213.198 590.302 219.028 597.032C224.665 603.539 231.794 608.401 234.292 607.442C236.256 606.688 239.76 608.542 243.079 612.089C244.52 613.629 247.278 615.149 249.329 615.534C251.348 615.913 253 616.622 253 617.111C253 618.524 248.932 618.084 243.313 616.061Z" fill="#FBFDF4" stroke="#FBFDF4"/>
<path d="M279 601.2C279 597.813 276.872 597 268.01 597C252.099 597 241.322 592.577 232.094 582.257C226.36 575.845 223.423 574.581 221.011 577.487C218.75 580.211 220.931 584.323 228.578 591.75C236.107 599.062 236.713 601.377 229.711 596.076C227.566 594.452 225.142 593.412 224.124 593.678C222.097 594.208 219.086 590.395 219.14 587.367C219.158 586.34 218.859 583.864 218.474 581.863C217.898 578.868 218.168 577.832 220.003 575.997C221.881 574.119 223.016 573.843 227.219 574.247C231.183 574.628 232.69 575.318 234.567 577.613C235.865 579.201 236.944 581.47 236.964 582.656C237.013 585.615 245.235 591 249.703 591C251.551 591 255.862 591.948 259.282 593.106C263.896 594.669 266.984 595.08 271.252 594.701C276.523 594.232 277.171 594.401 279.002 596.729C281.113 599.413 281.684 603 280 603C279.45 603 279 602.19 279 601.2Z" fill="#FBFDF4" stroke="#FBFDF4"/>
<path d="M732.241 638.778C732.465 638.106 733.74 637.3 735.074 636.987C739.395 635.974 738.705 630.397 732.786 618.5C727.407 607.688 715.018 594.601 705.627 589.81C699.253 586.558 687.8 582.929 685.858 583.545C683.48 584.3 682.448 587.894 684.147 589.509C684.891 590.217 688.326 591.919 691.779 593.293C695.232 594.667 700.604 597.3 703.716 599.145C712.573 604.396 724.304 617.055 720.25 616.987C719.838 616.98 717.39 614.568 714.811 611.627C710.009 606.151 693.783 595.947 687.49 594.445C683.121 593.402 681 591.133 681 587.5C681 583.71 683.61 581 687.26 581C690.877 581 705.668 586.557 710.499 589.731C721.914 597.23 733.007 610.809 737.677 623C741.649 633.367 741.737 635.275 738.365 637.927C735.483 640.194 731.589 640.736 732.241 638.778Z" fill="#FBFDF4" stroke="#FBFDF4"/>
<path d="M597.865 645.335C598.409 644.326 599.101 642.702 599.404 641.727C599.998 639.814 602.688 638.355 603.72 639.387C604.069 639.736 603.637 640.578 602.761 641.26C601.885 641.942 601.013 643.395 600.823 644.489C600.633 645.583 599.667 646.633 598.677 646.824C597.209 647.107 597.059 646.832 597.865 645.335Z" fill="#0F1319" stroke="#0F1319"/>
<path d="M719.004 507.44C719.011 505.636 722.908 500.12 724.946 499.029C726.185 498.366 727 496.928 727 495.406C727 493.978 727.434 493.15 728 493.5C730.024 494.751 728.789 497.632 723.955 502.94C721.23 505.932 719.002 507.957 719.004 507.44Z" fill="#0F1319" stroke="#0F1319"/>
<path d="M660 710.241C670.222 702.248 679.573 693.082 683.539 687.171C686.059 683.414 688 681.309 688 682.331C688 686.636 673.154 703.358 663.333 710.115C658.005 713.781 655.345 713.881 660 710.241Z" fill="#0F1319" stroke="#0F1319"/>
<path d="M446.548 747.25C443.095 742.029 441.482 737.118 442.79 735.81C443.898 734.702 456 738.782 456 740.264C456 741.112 451.495 740.232 445.722 741.75C446.651 743.812 448.528 746.737 449.893 748.25C451.922 750.499 452.069 751 450.701 751C449.781 751 447.912 749.312 446.548 747.25Z" fill="#0F1319" stroke="#0F1319"/>
<path d="M393 560.08C393 558.618 389.005 530.757 388.411 528.075C387.965 526.064 388.117 525.852 389.298 526.832C390.081 527.482 391.001 530.373 391.343 533.257C391.685 536.141 392.634 543.225 393.451 549C395.254 561.742 395.22 561 394 561C393.45 561 393 560.586 393 560.08Z" fill="#0F1319" stroke="#0F1319"/>
<path d="M283.75 570.92C281.504 569.612 281.568 568.109 284 565C286.067 562.357 286.723 563.782 284.957 567.081C284.15 568.59 284.262 569.164 285.457 569.622C287.02 570.222 287.629 572.026 286.25 571.97C285.837 571.953 284.712 571.481 283.75 570.92Z" fill="#0F1319" stroke="#0F1319"/>
<path d="M623 710.568C623 710.331 627.162 707.837 632.25 705.027C646.84 696.968 652.298 693.705 656.126 690.75C659.926 687.817 661 687.423 661 688.963C661 689.829 649.806 698 648.62 698C648.351 698 643.265 700.924 637.316 704.498C628.011 710.089 623 712.214 623 710.568Z" fill="#0F1319" stroke="#0F1319"/>
<path d="M302 544.39C302 543.504 299.951 540.759 297.446 538.29C293.465 534.365 292.93 533.341 293.196 530.15C293.485 526.689 293.675 526.508 296.896 526.663C300.949 526.858 308.361 531.767 308.795 534.544C309.082 536.38 308.99 536.368 307.3 534.344C305.011 531.602 299.032 528.009 296.75 528.004C293.926 527.998 294.43 533.58 297.431 535.546C301.314 538.09 305.578 546 303.067 546C302.48 546 302 545.276 302 544.39Z" fill="#0F1319" stroke="#0F1319"/>
<path d="M758.5 530.125C753.818 527.981 746.022 519.949 743.23 514.392C736.632 501.26 735.664 486.704 740.712 476.5C742.353 473.183 782.877 432 784.5 432C785.06 432 795.185 441.675 807.001 453.501L828.485 475.002L799.999 503.501L771.513 532L767.007 531.978C764.528 531.966 760.7 531.132 758.5 530.125Z" fill="#EE7760" stroke="#EE7760"/>
<path d="M512.028 655.25C501.533 644.417 489.119 624.544 483.479 609.547C480.401 601.364 480.427 601.27 488.655 590.338C494.843 582.116 505.91 570.987 513.774 565.078C521.368 559.372 532.041 553.641 533.101 554.701C534.11 555.71 531.474 565.868 529.78 567.5C529.066 568.187 528.953 567.604 529.419 565.633C529.792 564.056 530.368 561.406 530.701 559.743L531.306 556.72L525.112 560.021C515.215 565.296 499.195 579.684 491.431 590.27C487.708 595.346 484.23 600.067 483.701 600.76C482.6 602.203 485.499 610.958 490.238 620.5C495.498 631.091 508.223 649.032 514.344 654.488L520.188 659.697L531.315 656.787C537.435 655.187 543.018 653.4 543.721 652.816C544.662 652.035 545 652.149 545 653.248C545 654.285 541.716 655.699 534.25 657.876C519.319 662.231 518.723 662.161 512.028 655.25Z" fill="#0F1319" stroke="#0F1319"/>
<path d="M458.204 625.25C458.408 624.838 461.084 619.325 464.15 613C475.632 589.315 490.728 570.919 510.461 556.566C520.672 549.139 530.739 543.406 531.766 544.433C532.461 545.128 532.962 544.767 524.383 549.776C498.805 564.712 477.394 588.185 465.676 614.141C463.352 619.289 461.097 624.062 460.666 624.75C459.837 626.072 457.57 626.532 458.204 625.25Z" fill="#0F1319" stroke="#0F1319"/>
<path d="M615.583 652.597C617.737 650.726 619.661 649.633 619.857 650.169C620.421 651.708 615.86 656 613.659 656C612.046 656 612.413 655.351 615.583 652.597Z" fill="#182E47" stroke="#182E47"/>
<path d="M619.884 552.216C620.396 551.26 621.818 549.583 623.674 549.629C622.794 551.35 621.372 553.027 620.514 553.356C619.288 553.827 619.153 553.583 619.884 552.216Z" fill="#170E0A" stroke="#170E0A"/>
<path d="M318.42 535.87C317.992 535.178 318.26 534.936 319.111 535.245C319.875 535.523 321.737 534.597 323.25 533.188C325.272 531.304 326 531.032 326 532.158C326 535.552 320.03 538.475 318.42 535.87Z" fill="#170E0A" stroke="#170E0A"/>
<path d="M492.223 688.443C487.426 685.083 490.75 678.387 500.75 671.266C509.009 665.384 508.799 667.552 500.476 674.093C496.888 676.913 493.513 680.041 492.976 681.044C491.395 683.998 491.842 686.815 494 687.5C495.1 687.849 496 688.554 496 689.067C496 690.421 494.753 690.215 492.223 688.443Z" fill="#0F1319" stroke="#0F1319"/>
<path d="M382.492 487.583C380.96 477.009 380.885 474.484 381.981 470.569C383.795 464.088 389.236 459.485 397.544 457.4C402.092 456.258 400.048 458.514 394.866 460.354C388.524 462.607 385.528 465.504 383.89 470.972C382.644 475.131 382.847 478.014 385.674 496.25C386.012 498.432 385.845 500 385.273 500C384.733 500 383.481 494.412 382.492 487.583Z" fill="#0F1319" stroke="#0F1319"/>
<path d="M714 496.115C714 495.628 715.125 494.493 716.5 493.592C719.397 491.694 719.862 492.91 717.171 495.345C715.143 497.181 714 497.458 714 496.115Z" fill="#0F1319" stroke="#0F1319"/>
<path d="M333 524.174C333 523.72 334.125 522.292 335.5 521C337.372 519.241 338 519.033 338 520.171C338 521.007 337.177 522.435 336.171 523.345C334.172 525.154 333 525.46 333 524.174Z" fill="#170E0A" stroke="#170E0A"/>
<path d="M578.975 361.75C578.961 361.062 577.194 348.59 575.049 334.034C572.904 319.478 571.348 307.246 571.591 306.853C572.341 305.639 584.368 311.644 585.161 313.629C586.578 317.174 591.089 353.018 590.295 354.426C589.372 356.063 580.86 362.976 579.75 362.99C579.338 362.995 578.989 362.438 578.975 361.75Z" fill="#EE7760" stroke="#EE7760"/>
<path d="M440.567 233.113C435.094 229.394 433.613 223.725 436.516 217.607C439.572 211.168 447.056 209.219 453.102 213.287C459.409 217.531 460.129 226.712 454.564 231.94C451.13 235.166 444.416 235.729 440.567 233.113Z" fill="#F6E35A" stroke="#F6E35A"/>
<path d="M471.538 437.061C470.485 435.357 469.334 423.912 470.164 423.399C471.701 422.449 513.487 417.18 514.198 417.846C515.398 418.97 516.78 430.018 515.797 430.626C515.296 430.935 506.474 432.493 496.193 434.087C485.912 435.681 476.28 437.199 474.789 437.46C473.298 437.721 471.835 437.541 471.538 437.061Z" fill="#2A4363" stroke="#2A4363"/>
</g>
<defs>
<clipPath id="clip0_78_58">
<rect width="1024" height="1024" fill="white"/>
</clipPath>
</defs>
</svg>
